<mxfile host="Electron" agent="Mozilla/5.0 (Windows NT 10.0; Win64; x64) AppleWebKit/537.36 (KHTML, like Gecko) draw.io/28.0.6 Chrome/138.0.7204.100 Electron/37.2.3 Safari/537.36" version="28.0.6">
  <diagram name="Page-1" id="3a_alY-m2_s3Xfb2v9r6">
    <mxGraphModel dx="716" dy="414" grid="1" gridSize="10" guides="1" tooltips="1" connect="1" arrows="1" fold="1" page="1" pageScale="1" pageWidth="850" pageHeight="1100" math="0" shadow="0">
      <root>
        <object label="" id="0">
          <mxCell />
        </object>
        <mxCell id="1" parent="0" />
        <mxCell id="1WeZYifnovVVl7Edg_Gf-1" value="" style="strokeColor=#666666;html=1;verticalLabelPosition=bottom;labelBackgroundColor=#ffffff;verticalAlign=top;outlineConnect=0;shadow=0;dashed=0;shape=mxgraph.rackGeneral.rackCabinet3;fillColor2=#f4f4f4;container=1;collapsible=0;childLayout=rack;allowGaps=1;marginLeft=33;marginRight=9;marginTop=21;marginBottom=22;textColor=#666666;numDisp=descend;" parent="1" vertex="1">
          <mxGeometry x="290" y="50" width="204" height="410" as="geometry" />
        </mxCell>
        <mxCell id="1WeZYifnovVVl7Edg_Gf-9" value="" style="strokeColor=#666666;html=1;labelPosition=right;align=left;spacingLeft=15;shadow=0;dashed=0;outlineConnect=0;shape=mxgraph.rackGeneral.shelf;container=1;collapsible=0" parent="1WeZYifnovVVl7Edg_Gf-1" vertex="1">
          <mxGeometry x="33" y="80" width="162" height="15" as="geometry" />
        </mxCell>
        <mxCell id="1WeZYifnovVVl7Edg_Gf-260" value="" style="sketch=0;aspect=fixed;pointerEvents=1;shadow=0;dashed=0;html=1;strokeColor=none;labelPosition=center;verticalLabelPosition=bottom;verticalAlign=top;align=center;fillColor=#00188D;shape=mxgraph.mscae.enterprise.router" parent="1WeZYifnovVVl7Edg_Gf-9" vertex="1">
          <mxGeometry x="17" y="3" width="11.54" height="9" as="geometry" />
        </mxCell>
        <mxCell id="1WeZYifnovVVl7Edg_Gf-261" value="" style="sketch=0;outlineConnect=0;fontColor=#232F3E;gradientColor=none;strokeColor=#232F3E;fillColor=#ffffff;dashed=0;verticalLabelPosition=bottom;verticalAlign=top;align=center;html=1;fontSize=12;fontStyle=0;aspect=fixed;shape=mxgraph.aws4.resourceIcon;resIcon=mxgraph.aws4.vault;" parent="1WeZYifnovVVl7Edg_Gf-9" vertex="1">
          <mxGeometry x="120" y="-8" width="17" height="17" as="geometry" />
        </mxCell>
        <mxCell id="1WeZYifnovVVl7Edg_Gf-2" value="" style="strokeColor=#666666;html=1;labelPosition=right;align=left;spacingLeft=15;shadow=0;dashed=0;outlineConnect=0;shape=mxgraph.rack.general.cat5e_rack_mount_patch_panel_24_ports;" parent="1WeZYifnovVVl7Edg_Gf-1" vertex="1">
          <mxGeometry x="33" y="110" width="162" height="15" as="geometry" />
        </mxCell>
        <mxCell id="1WeZYifnovVVl7Edg_Gf-10" value="" style="shape=mxgraph.rack.cisco.cisco_catalyst_4948_switch;html=1;labelPosition=right;align=left;spacingLeft=15;dashed=0;shadow=0;fillColor=#ffffff;" parent="1WeZYifnovVVl7Edg_Gf-1" vertex="1">
          <mxGeometry x="33" y="140" width="162" height="15" as="geometry" />
        </mxCell>
        <mxCell id="1WeZYifnovVVl7Edg_Gf-3" value="" style="strokeColor=#666666;html=1;labelPosition=right;align=left;spacingLeft=15;shadow=0;dashed=0;outlineConnect=0;shape=mxgraph.rackGeneral.shelf;container=1;collapsible=0" parent="1WeZYifnovVVl7Edg_Gf-1" vertex="1">
          <mxGeometry x="33" y="272" width="162" height="30" as="geometry" />
        </mxCell>
        <mxCell id="1WeZYifnovVVl7Edg_Gf-5" value="" style="shape=mxgraph.rack.ibm.ibm_1500-2200va_ups;html=1;labelPosition=right;align=left;spacingLeft=15;dashed=0;shadow=0;fillColor=#ffffff;" parent="1WeZYifnovVVl7Edg_Gf-1" vertex="1">
          <mxGeometry x="33" y="302" width="162" height="30" as="geometry" />
        </mxCell>
        <mxCell id="1WeZYifnovVVl7Edg_Gf-8" value="" style="strokeColor=#666666;html=1;labelPosition=right;align=left;spacingLeft=15;shadow=0;dashed=0;outlineConnect=0;shape=mxgraph.rack.dell.dell_poweredge_2u;" parent="1WeZYifnovVVl7Edg_Gf-1" vertex="1">
          <mxGeometry x="33" y="332" width="162" height="30" as="geometry" />
        </mxCell>
        <mxCell id="1WeZYifnovVVl7Edg_Gf-7" value="" style="strokeColor=#666666;html=1;labelPosition=right;align=left;spacingLeft=15;shadow=0;dashed=0;outlineConnect=0;shape=mxgraph.rack.dell.dell_poweredge_2u;" parent="1WeZYifnovVVl7Edg_Gf-1" vertex="1">
          <mxGeometry x="33" y="362" width="162" height="30" as="geometry" />
        </mxCell>
        <mxCell id="1WeZYifnovVVl7Edg_Gf-11" value="Rack Diagram" style="text;html=1;align=center;verticalAlign=middle;whiteSpace=wrap;rounded=0;fontSize=20;fontStyle=1" parent="1" vertex="1">
          <mxGeometry x="330" y="10" width="170" height="30" as="geometry" />
        </mxCell>
        <mxCell id="1WeZYifnovVVl7Edg_Gf-12" value="Shelf (bootstrap node)" style="text;html=1;align=left;verticalAlign=middle;whiteSpace=wrap;rounded=0;fontSize=8;" parent="1" vertex="1">
          <mxGeometry x="494" y="331" width="86" height="12" as="geometry" />
        </mxCell>
        <mxCell id="1WeZYifnovVVl7Edg_Gf-13" value="UPS" style="text;html=1;align=left;verticalAlign=middle;whiteSpace=wrap;rounded=0;fontSize=8;" parent="1" vertex="1">
          <mxGeometry x="494" y="360" width="26" height="12" as="geometry" />
        </mxCell>
        <mxCell id="1WeZYifnovVVl7Edg_Gf-14" value="R720 #1" style="text;html=1;align=left;verticalAlign=middle;whiteSpace=wrap;rounded=0;fontSize=8;" parent="1" vertex="1">
          <mxGeometry x="494" y="390" width="36" height="12" as="geometry" />
        </mxCell>
        <mxCell id="1WeZYifnovVVl7Edg_Gf-15" value="R720 #2" style="text;html=1;align=left;verticalAlign=middle;whiteSpace=wrap;rounded=0;fontSize=8;" parent="1" vertex="1">
          <mxGeometry x="494" y="420" width="36" height="12" as="geometry" />
        </mxCell>
        <mxCell id="1WeZYifnovVVl7Edg_Gf-16" value="Patch Panel" style="text;html=1;align=left;verticalAlign=middle;whiteSpace=wrap;rounded=0;fontSize=8;" parent="1" vertex="1">
          <mxGeometry x="494" y="160" width="56" height="12" as="geometry" />
        </mxCell>
        <mxCell id="1WeZYifnovVVl7Edg_Gf-17" value="Switch" style="text;html=1;align=left;verticalAlign=middle;whiteSpace=wrap;rounded=0;fontSize=8;" parent="1" vertex="1">
          <mxGeometry x="494" y="188" width="56" height="12" as="geometry" />
        </mxCell>
        <mxCell id="1WeZYifnovVVl7Edg_Gf-18" value="Shelf (VP2420+VaultPi)" style="text;html=1;align=left;verticalAlign=middle;whiteSpace=wrap;rounded=0;fontSize=8;" parent="1" vertex="1">
          <mxGeometry x="494" y="128" width="86" height="12" as="geometry" />
        </mxCell>
        <mxCell id="1WeZYifnovVVl7Edg_Gf-19" value="" style="group" parent="1" vertex="1" connectable="0">
          <mxGeometry x="360" y="810" width="130" height="80" as="geometry" />
        </mxCell>
        <mxCell id="KC1Aw0KQFRhmaeJQ0zwd-1" value="" style="sketch=0;points=[[0.015,0.015,0],[0.985,0.015,0],[0.985,0.985,0],[0.015,0.985,0],[0.25,0,0],[0.5,0,0],[0.75,0,0],[1,0.25,0],[1,0.5,0],[1,0.75,0],[0.75,1,0],[0.5,1,0],[0.25,1,0],[0,0.75,0],[0,0.5,0],[0,0.25,0]];verticalLabelPosition=bottom;html=1;verticalAlign=top;aspect=fixed;align=center;pointerEvents=1;shape=mxgraph.cisco19.rect;prIcon=l3_switch;fillColor=#FAFAFA;strokeColor=#005073;textShadow=1;" parent="1WeZYifnovVVl7Edg_Gf-19" vertex="1">
          <mxGeometry x="40" width="50" height="50" as="geometry" />
        </mxCell>
        <mxCell id="KC1Aw0KQFRhmaeJQ0zwd-2" value="Juniper EX3300-48T" style="text;html=1;align=center;verticalAlign=middle;whiteSpace=wrap;rounded=0;" parent="1WeZYifnovVVl7Edg_Gf-19" vertex="1">
          <mxGeometry y="50" width="130" height="30" as="geometry" />
        </mxCell>
        <mxCell id="1WeZYifnovVVl7Edg_Gf-20" value="" style="group" parent="1" vertex="1" connectable="0">
          <mxGeometry x="200" y="810" width="60" height="80" as="geometry" />
        </mxCell>
        <mxCell id="KC1Aw0KQFRhmaeJQ0zwd-3" value="" style="sketch=0;points=[[0.5,0,0],[1,0.5,0],[0.5,1,0],[0,0.5,0],[0.145,0.145,0],[0.8555,0.145,0],[0.855,0.8555,0],[0.145,0.855,0]];verticalLabelPosition=bottom;html=1;verticalAlign=top;aspect=fixed;align=center;pointerEvents=1;shape=mxgraph.cisco19.rect;prIcon=router;fillColor=#FAFAFA;strokeColor=#005073;" parent="1WeZYifnovVVl7Edg_Gf-20" vertex="1">
          <mxGeometry x="5" width="50" height="50" as="geometry" />
        </mxCell>
        <mxCell id="KC1Aw0KQFRhmaeJQ0zwd-4" value="Proctli&lt;br&gt;VP2420" style="text;html=1;align=center;verticalAlign=middle;whiteSpace=wrap;rounded=0;" parent="1WeZYifnovVVl7Edg_Gf-20" vertex="1">
          <mxGeometry y="50" width="60" height="30" as="geometry" />
        </mxCell>
        <mxCell id="1WeZYifnovVVl7Edg_Gf-22" value="External" style="text;html=1;align=center;verticalAlign=middle;whiteSpace=wrap;rounded=0;" parent="1" vertex="1">
          <mxGeometry x="60" y="820" width="60" height="30" as="geometry" />
        </mxCell>
        <mxCell id="1WeZYifnovVVl7Edg_Gf-23" value="" style="endArrow=classic;startArrow=classic;html=1;rounded=0;exitX=1;exitY=0.5;exitDx=0;exitDy=0;entryX=0;entryY=0.5;entryDx=0;entryDy=0;entryPerimeter=0;" parent="1" source="1WeZYifnovVVl7Edg_Gf-22" target="KC1Aw0KQFRhmaeJQ0zwd-3" edge="1">
          <mxGeometry width="50" height="50" relative="1" as="geometry">
            <mxPoint x="460" y="820" as="sourcePoint" />
            <mxPoint x="510" y="770" as="targetPoint" />
          </mxGeometry>
        </mxCell>
        <mxCell id="1WeZYifnovVVl7Edg_Gf-24" value="" style="endArrow=classic;startArrow=classic;html=1;rounded=0;exitX=1;exitY=0.5;exitDx=0;exitDy=0;exitPerimeter=0;entryX=0;entryY=0.5;entryDx=0;entryDy=0;entryPerimeter=0;" parent="1" source="KC1Aw0KQFRhmaeJQ0zwd-3" target="KC1Aw0KQFRhmaeJQ0zwd-1" edge="1">
          <mxGeometry width="50" height="50" relative="1" as="geometry">
            <mxPoint x="240" y="830" as="sourcePoint" />
            <mxPoint x="400" y="840" as="targetPoint" />
          </mxGeometry>
        </mxCell>
        <mxCell id="1WeZYifnovVVl7Edg_Gf-25" value="" style="group" parent="1" vertex="1" connectable="0">
          <mxGeometry x="395" y="630" width="60" height="100" as="geometry" />
        </mxCell>
        <mxCell id="KC1Aw0KQFRhmaeJQ0zwd-6" value="Nighthawk AC1900" style="text;html=1;align=center;verticalAlign=middle;whiteSpace=wrap;rounded=0;" parent="1WeZYifnovVVl7Edg_Gf-25" vertex="1">
          <mxGeometry width="60" height="30" as="geometry" />
        </mxCell>
        <mxCell id="KC1Aw0KQFRhmaeJQ0zwd-5" value="" style="sketch=0;points=[[0.5,0,0],[1,0.5,0],[0.5,1,0],[0,0.5,0],[0.145,0.145,0],[0.8555,0.145,0],[0.855,0.8555,0],[0.145,0.855,0]];verticalLabelPosition=bottom;html=1;verticalAlign=top;aspect=fixed;align=center;pointerEvents=1;shape=mxgraph.cisco19.rect;prIcon=wireless_router;fillColor=#FAFAFA;strokeColor=#005073;" parent="1WeZYifnovVVl7Edg_Gf-25" vertex="1">
          <mxGeometry x="5" y="40" width="50" height="60" as="geometry" />
        </mxCell>
        <mxCell id="1WeZYifnovVVl7Edg_Gf-26" value="" style="endArrow=classic;startArrow=classic;html=1;rounded=0;entryX=0.5;entryY=1;entryDx=0;entryDy=0;entryPerimeter=0;exitX=0.5;exitY=0;exitDx=0;exitDy=0;exitPerimeter=0;" parent="1" source="KC1Aw0KQFRhmaeJQ0zwd-1" target="KC1Aw0KQFRhmaeJQ0zwd-5" edge="1">
          <mxGeometry width="50" height="50" relative="1" as="geometry">
            <mxPoint x="430" y="810" as="sourcePoint" />
            <mxPoint x="480" y="760" as="targetPoint" />
          </mxGeometry>
        </mxCell>
        <mxCell id="1WeZYifnovVVl7Edg_Gf-27" value="" style="endArrow=none;dashed=1;html=1;dashPattern=1 3;strokeWidth=2;rounded=0;exitX=0.8555;exitY=0.145;exitDx=0;exitDy=0;exitPerimeter=0;entryX=0;entryY=0.5;entryDx=0;entryDy=0;entryPerimeter=0;" parent="1" source="KC1Aw0KQFRhmaeJQ0zwd-3" target="KC1Aw0KQFRhmaeJQ0zwd-5" edge="1">
          <mxGeometry width="50" height="50" relative="1" as="geometry">
            <mxPoint x="420" y="830" as="sourcePoint" />
            <mxPoint x="470" y="780" as="targetPoint" />
          </mxGeometry>
        </mxCell>
        <mxCell id="1WeZYifnovVVl7Edg_Gf-28" value="Inactive Fallback" style="text;html=1;align=center;verticalAlign=middle;whiteSpace=wrap;rounded=0;rotation=318;" parent="1" vertex="1">
          <mxGeometry x="260" y="740" width="60" height="30" as="geometry" />
        </mxCell>
        <mxCell id="1WeZYifnovVVl7Edg_Gf-30" value="" style="endArrow=classic;startArrow=classic;html=1;rounded=0;exitX=1;exitY=0.5;exitDx=0;exitDy=0;exitPerimeter=0;" parent="1" source="KC1Aw0KQFRhmaeJQ0zwd-1" target="NUuXP2O3mSexVDJCBuf6-3" edge="1">
          <mxGeometry width="50" height="50" relative="1" as="geometry">
            <mxPoint x="370" y="840" as="sourcePoint" />
            <mxPoint x="590" y="843" as="targetPoint" />
          </mxGeometry>
        </mxCell>
        <mxCell id="1WeZYifnovVVl7Edg_Gf-34" value="Vault" style="sketch=0;outlineConnect=0;fontColor=#232F3E;gradientColor=none;strokeColor=#232F3E;fillColor=#ffffff;dashed=0;verticalLabelPosition=bottom;verticalAlign=top;align=center;html=1;fontSize=12;fontStyle=0;aspect=fixed;shape=mxgraph.aws4.resourceIcon;resIcon=mxgraph.aws4.vault;" parent="1" vertex="1">
          <mxGeometry x="573.75" y="948" width="60" height="60" as="geometry" />
        </mxCell>
        <mxCell id="1WeZYifnovVVl7Edg_Gf-35" value="" style="endArrow=classic;startArrow=classic;html=1;rounded=0;exitX=1;exitY=0.5;exitDx=0;exitDy=0;exitPerimeter=0;" parent="1" source="KC1Aw0KQFRhmaeJQ0zwd-1" target="1WeZYifnovVVl7Edg_Gf-34" edge="1">
          <mxGeometry width="50" height="50" relative="1" as="geometry">
            <mxPoint x="520" y="840" as="sourcePoint" />
            <mxPoint x="660" y="860" as="targetPoint" />
          </mxGeometry>
        </mxCell>
        <mxCell id="1WeZYifnovVVl7Edg_Gf-36" value="Ansible" style="shape=rect;fillColor=#EE5396;aspect=fixed;resizable=0;labelPosition=center;verticalLabelPosition=bottom;align=center;verticalAlign=top;strokeColor=none;fontSize=14;" parent="1" vertex="1">
          <mxGeometry x="579.75" y="692" width="48" height="48" as="geometry" />
        </mxCell>
        <mxCell id="1WeZYifnovVVl7Edg_Gf-37" value="" style="fillColor=#ffffff;strokeColor=none;dashed=0;outlineConnect=0;html=1;labelPosition=center;verticalLabelPosition=bottom;verticalAlign=top;part=1;movable=0;resizable=0;rotatable=0;shape=mxgraph.ibm_cloud.logo--ansible-community" parent="1WeZYifnovVVl7Edg_Gf-36" vertex="1">
          <mxGeometry width="24" height="24" relative="1" as="geometry">
            <mxPoint x="12" y="12" as="offset" />
          </mxGeometry>
        </mxCell>
        <mxCell id="1WeZYifnovVVl7Edg_Gf-38" value="" style="endArrow=classic;startArrow=classic;html=1;rounded=0;exitX=1;exitY=0.5;exitDx=0;exitDy=0;exitPerimeter=0;entryX=0;entryY=0.5;entryDx=0;entryDy=0;" parent="1" source="KC1Aw0KQFRhmaeJQ0zwd-1" target="1WeZYifnovVVl7Edg_Gf-36" edge="1">
          <mxGeometry width="50" height="50" relative="1" as="geometry">
            <mxPoint x="560" y="890" as="sourcePoint" />
            <mxPoint x="684" y="966" as="targetPoint" />
          </mxGeometry>
        </mxCell>
        <mxCell id="1WeZYifnovVVl7Edg_Gf-39" value="" style="image;html=1;image=img/lib/clip_art/computers/Monitor_Tower_128x128.png" parent="1" vertex="1">
          <mxGeometry x="563.75" y="600" width="80" height="80" as="geometry" />
        </mxCell>
        <mxCell id="1WeZYifnovVVl7Edg_Gf-40" value="" style="endArrow=classic;startArrow=classic;html=1;rounded=0;exitX=1;exitY=0.5;exitDx=0;exitDy=0;exitPerimeter=0;entryX=0;entryY=0.5;entryDx=0;entryDy=0;" parent="1" source="KC1Aw0KQFRhmaeJQ0zwd-1" target="1WeZYifnovVVl7Edg_Gf-39" edge="1">
          <mxGeometry width="50" height="50" relative="1" as="geometry">
            <mxPoint x="490" y="881" as="sourcePoint" />
            <mxPoint x="620" y="810" as="targetPoint" />
          </mxGeometry>
        </mxCell>
        <mxCell id="1WeZYifnovVVl7Edg_Gf-43" value="Cabling Model" style="text;html=1;align=center;verticalAlign=middle;whiteSpace=wrap;rounded=0;fontStyle=1;fontSize=19;" parent="1" vertex="1">
          <mxGeometry x="310" y="560" width="230" height="30" as="geometry" />
        </mxCell>
        <mxCell id="1WeZYifnovVVl7Edg_Gf-44" value="" style="endArrow=none;dashed=1;html=1;rounded=0;" parent="1" edge="1">
          <mxGeometry width="50" height="50" relative="1" as="geometry">
            <mxPoint x="20" y="540" as="sourcePoint" />
            <mxPoint x="840" y="540" as="targetPoint" />
          </mxGeometry>
        </mxCell>
        <mxCell id="1WeZYifnovVVl7Edg_Gf-47" value="Patch Plan" style="text;html=1;align=center;verticalAlign=middle;whiteSpace=wrap;rounded=0;fontSize=20;fontStyle=1" parent="1" vertex="1">
          <mxGeometry x="1180" y="20" width="170" height="30" as="geometry" />
        </mxCell>
        <mxCell id="1WeZYifnovVVl7Edg_Gf-238" style="edgeStyle=orthogonalEdgeStyle;rounded=0;orthogonalLoop=1;jettySize=auto;html=1;exitX=0.018;exitY=0.986;exitDx=0;exitDy=0;exitPerimeter=0;entryX=0.023;entryY=-0.037;entryDx=0;entryDy=0;entryPerimeter=0;" parent="1" source="1WeZYifnovVVl7Edg_Gf-70" target="1WeZYifnovVVl7Edg_Gf-96" edge="1">
          <mxGeometry relative="1" as="geometry">
            <mxPoint x="949.9677419354839" y="560" as="targetPoint" />
            <Array as="points">
              <mxPoint x="961" y="470" />
              <mxPoint x="961" y="480" />
              <mxPoint x="965" y="480" />
            </Array>
          </mxGeometry>
        </mxCell>
        <mxCell id="1WeZYifnovVVl7Edg_Gf-240" value="" style="edgeStyle=orthogonalEdgeStyle;rounded=0;orthogonalLoop=1;jettySize=auto;html=1;exitX=0.148;exitY=0.988;exitDx=0;exitDy=0;entryX=0.813;entryY=0.945;entryDx=0;entryDy=0;entryPerimeter=0;exitPerimeter=0;" parent="1" source="1WeZYifnovVVl7Edg_Gf-70" target="1WeZYifnovVVl7Edg_Gf-121" edge="1">
          <mxGeometry x="0.0005" relative="1" as="geometry">
            <mxPoint x="1130" y="510" as="targetPoint" />
            <Array as="points">
              <mxPoint x="1043" y="460" />
              <mxPoint x="930" y="460" />
              <mxPoint x="930" y="620" />
              <mxPoint x="1462" y="620" />
            </Array>
            <mxPoint as="offset" />
          </mxGeometry>
        </mxCell>
        <mxCell id="1WeZYifnovVVl7Edg_Gf-249" style="edgeStyle=orthogonalEdgeStyle;rounded=0;orthogonalLoop=1;jettySize=auto;html=1;exitX=0.937;exitY=1.015;exitDx=0;exitDy=0;entryX=0.979;entryY=-0.006;entryDx=0;entryDy=0;entryPerimeter=0;exitPerimeter=0;" parent="1" source="1WeZYifnovVVl7Edg_Gf-70" target="1WeZYifnovVVl7Edg_Gf-95" edge="1">
          <mxGeometry relative="1" as="geometry">
            <mxPoint x="1570" y="510" as="targetPoint" />
            <Array as="points">
              <mxPoint x="1540" y="480" />
              <mxPoint x="1567" y="480" />
            </Array>
          </mxGeometry>
        </mxCell>
        <mxCell id="1WeZYifnovVVl7Edg_Gf-49" value="" style="shape=table;startSize=0;container=1;collapsible=0;childLayout=tableLayout;verticalAlign=middle;align=center;" parent="1" vertex="1">
          <mxGeometry x="950" y="420" width="630" height="30" as="geometry" />
        </mxCell>
        <mxCell id="1WeZYifnovVVl7Edg_Gf-70" style="shape=tableRow;horizontal=0;startSize=0;swimlaneHead=0;swimlaneBody=0;strokeColor=inherit;top=0;left=0;bottom=0;right=0;collapsible=0;dropTarget=0;fillColor=none;points=[[0,0.5],[1,0.5]];portConstraint=eastwest;fontSize=16;" parent="1WeZYifnovVVl7Edg_Gf-49" vertex="1">
          <mxGeometry width="630" height="30" as="geometry" />
        </mxCell>
        <mxCell id="1WeZYifnovVVl7Edg_Gf-71" value="1" style="shape=partialRectangle;html=1;whiteSpace=wrap;connectable=0;strokeColor=inherit;overflow=hidden;fillColor=none;top=0;left=0;bottom=0;right=0;pointerEvents=1;fontSize=16;" parent="1WeZYifnovVVl7Edg_Gf-70" vertex="1">
          <mxGeometry width="26" height="30" as="geometry">
            <mxRectangle width="26" height="30" as="alternateBounds" />
          </mxGeometry>
        </mxCell>
        <mxCell id="1WeZYifnovVVl7Edg_Gf-72" value="2" style="shape=partialRectangle;html=1;whiteSpace=wrap;connectable=0;strokeColor=inherit;overflow=hidden;fillColor=none;top=0;left=0;bottom=0;right=0;pointerEvents=1;fontSize=16;" parent="1WeZYifnovVVl7Edg_Gf-70" vertex="1">
          <mxGeometry x="26" width="27" height="30" as="geometry">
            <mxRectangle width="27" height="30" as="alternateBounds" />
          </mxGeometry>
        </mxCell>
        <mxCell id="1WeZYifnovVVl7Edg_Gf-73" value="3" style="shape=partialRectangle;html=1;whiteSpace=wrap;connectable=0;strokeColor=inherit;overflow=hidden;fillColor=none;top=0;left=0;bottom=0;right=0;pointerEvents=1;fontSize=16;" parent="1WeZYifnovVVl7Edg_Gf-70" vertex="1">
          <mxGeometry x="53" width="26" height="30" as="geometry">
            <mxRectangle width="26" height="30" as="alternateBounds" />
          </mxGeometry>
        </mxCell>
        <mxCell id="1WeZYifnovVVl7Edg_Gf-74" value="4" style="shape=partialRectangle;html=1;whiteSpace=wrap;connectable=0;strokeColor=inherit;overflow=hidden;fillColor=none;top=0;left=0;bottom=0;right=0;pointerEvents=1;fontSize=16;" parent="1WeZYifnovVVl7Edg_Gf-70" vertex="1">
          <mxGeometry x="79" width="26" height="30" as="geometry">
            <mxRectangle width="26" height="30" as="alternateBounds" />
          </mxGeometry>
        </mxCell>
        <mxCell id="1WeZYifnovVVl7Edg_Gf-75" value="5" style="shape=partialRectangle;html=1;whiteSpace=wrap;connectable=0;strokeColor=inherit;overflow=hidden;fillColor=none;top=0;left=0;bottom=0;right=0;pointerEvents=1;fontSize=16;" parent="1WeZYifnovVVl7Edg_Gf-70" vertex="1">
          <mxGeometry x="105" width="26" height="30" as="geometry">
            <mxRectangle width="26" height="30" as="alternateBounds" />
          </mxGeometry>
        </mxCell>
        <mxCell id="1WeZYifnovVVl7Edg_Gf-76" value="6" style="shape=partialRectangle;html=1;whiteSpace=wrap;connectable=0;strokeColor=inherit;overflow=hidden;fillColor=none;top=0;left=0;bottom=0;right=0;pointerEvents=1;fontSize=16;" parent="1WeZYifnovVVl7Edg_Gf-70" vertex="1">
          <mxGeometry x="131" width="27" height="30" as="geometry">
            <mxRectangle width="27" height="30" as="alternateBounds" />
          </mxGeometry>
        </mxCell>
        <mxCell id="1WeZYifnovVVl7Edg_Gf-77" value="7" style="shape=partialRectangle;html=1;whiteSpace=wrap;connectable=0;strokeColor=inherit;overflow=hidden;fillColor=none;top=0;left=0;bottom=0;right=0;pointerEvents=1;fontSize=16;" parent="1WeZYifnovVVl7Edg_Gf-70" vertex="1">
          <mxGeometry x="158" width="26" height="30" as="geometry">
            <mxRectangle width="26" height="30" as="alternateBounds" />
          </mxGeometry>
        </mxCell>
        <mxCell id="1WeZYifnovVVl7Edg_Gf-78" value="8" style="shape=partialRectangle;html=1;whiteSpace=wrap;connectable=0;strokeColor=inherit;overflow=hidden;fillColor=none;top=0;left=0;bottom=0;right=0;pointerEvents=1;fontSize=16;" parent="1WeZYifnovVVl7Edg_Gf-70" vertex="1">
          <mxGeometry x="184" width="26" height="30" as="geometry">
            <mxRectangle width="26" height="30" as="alternateBounds" />
          </mxGeometry>
        </mxCell>
        <mxCell id="1WeZYifnovVVl7Edg_Gf-79" value="9" style="shape=partialRectangle;html=1;whiteSpace=wrap;connectable=0;strokeColor=inherit;overflow=hidden;fillColor=none;top=0;left=0;bottom=0;right=0;pointerEvents=1;fontSize=16;" parent="1WeZYifnovVVl7Edg_Gf-70" vertex="1">
          <mxGeometry x="210" width="26" height="30" as="geometry">
            <mxRectangle width="26" height="30" as="alternateBounds" />
          </mxGeometry>
        </mxCell>
        <mxCell id="1WeZYifnovVVl7Edg_Gf-80" value="10" style="shape=partialRectangle;html=1;whiteSpace=wrap;connectable=0;strokeColor=inherit;overflow=hidden;fillColor=none;top=0;left=0;bottom=0;right=0;pointerEvents=1;fontSize=16;" parent="1WeZYifnovVVl7Edg_Gf-70" vertex="1">
          <mxGeometry x="236" width="27" height="30" as="geometry">
            <mxRectangle width="27" height="30" as="alternateBounds" />
          </mxGeometry>
        </mxCell>
        <mxCell id="1WeZYifnovVVl7Edg_Gf-81" value="11" style="shape=partialRectangle;html=1;whiteSpace=wrap;connectable=0;strokeColor=inherit;overflow=hidden;fillColor=none;top=0;left=0;bottom=0;right=0;pointerEvents=1;fontSize=16;" parent="1WeZYifnovVVl7Edg_Gf-70" vertex="1">
          <mxGeometry x="263" width="26" height="30" as="geometry">
            <mxRectangle width="26" height="30" as="alternateBounds" />
          </mxGeometry>
        </mxCell>
        <mxCell id="1WeZYifnovVVl7Edg_Gf-82" value="12" style="shape=partialRectangle;html=1;whiteSpace=wrap;connectable=0;strokeColor=inherit;overflow=hidden;fillColor=none;top=0;left=0;bottom=0;right=0;pointerEvents=1;fontSize=16;" parent="1WeZYifnovVVl7Edg_Gf-70" vertex="1">
          <mxGeometry x="289" width="26" height="30" as="geometry">
            <mxRectangle width="26" height="30" as="alternateBounds" />
          </mxGeometry>
        </mxCell>
        <mxCell id="1WeZYifnovVVl7Edg_Gf-83" value="13" style="shape=partialRectangle;html=1;whiteSpace=wrap;connectable=0;strokeColor=inherit;overflow=hidden;fillColor=none;top=0;left=0;bottom=0;right=0;pointerEvents=1;fontSize=16;" parent="1WeZYifnovVVl7Edg_Gf-70" vertex="1">
          <mxGeometry x="315" width="26" height="30" as="geometry">
            <mxRectangle width="26" height="30" as="alternateBounds" />
          </mxGeometry>
        </mxCell>
        <mxCell id="1WeZYifnovVVl7Edg_Gf-84" value="14" style="shape=partialRectangle;html=1;whiteSpace=wrap;connectable=0;strokeColor=inherit;overflow=hidden;fillColor=none;top=0;left=0;bottom=0;right=0;pointerEvents=1;fontSize=16;" parent="1WeZYifnovVVl7Edg_Gf-70" vertex="1">
          <mxGeometry x="341" width="27" height="30" as="geometry">
            <mxRectangle width="27" height="30" as="alternateBounds" />
          </mxGeometry>
        </mxCell>
        <mxCell id="1WeZYifnovVVl7Edg_Gf-85" value="15" style="shape=partialRectangle;html=1;whiteSpace=wrap;connectable=0;strokeColor=inherit;overflow=hidden;fillColor=none;top=0;left=0;bottom=0;right=0;pointerEvents=1;fontSize=16;" parent="1WeZYifnovVVl7Edg_Gf-70" vertex="1">
          <mxGeometry x="368" width="26" height="30" as="geometry">
            <mxRectangle width="26" height="30" as="alternateBounds" />
          </mxGeometry>
        </mxCell>
        <mxCell id="1WeZYifnovVVl7Edg_Gf-86" value="16" style="shape=partialRectangle;html=1;whiteSpace=wrap;connectable=0;strokeColor=inherit;overflow=hidden;fillColor=none;top=0;left=0;bottom=0;right=0;pointerEvents=1;fontSize=16;" parent="1WeZYifnovVVl7Edg_Gf-70" vertex="1">
          <mxGeometry x="394" width="26" height="30" as="geometry">
            <mxRectangle width="26" height="30" as="alternateBounds" />
          </mxGeometry>
        </mxCell>
        <mxCell id="1WeZYifnovVVl7Edg_Gf-87" value="17" style="shape=partialRectangle;html=1;whiteSpace=wrap;connectable=0;strokeColor=inherit;overflow=hidden;fillColor=none;top=0;left=0;bottom=0;right=0;pointerEvents=1;fontSize=16;" parent="1WeZYifnovVVl7Edg_Gf-70" vertex="1">
          <mxGeometry x="420" width="26" height="30" as="geometry">
            <mxRectangle width="26" height="30" as="alternateBounds" />
          </mxGeometry>
        </mxCell>
        <mxCell id="1WeZYifnovVVl7Edg_Gf-88" value="18" style="shape=partialRectangle;html=1;whiteSpace=wrap;connectable=0;strokeColor=inherit;overflow=hidden;fillColor=none;top=0;left=0;bottom=0;right=0;pointerEvents=1;fontSize=16;" parent="1WeZYifnovVVl7Edg_Gf-70" vertex="1">
          <mxGeometry x="446" width="27" height="30" as="geometry">
            <mxRectangle width="27" height="30" as="alternateBounds" />
          </mxGeometry>
        </mxCell>
        <mxCell id="1WeZYifnovVVl7Edg_Gf-89" value="19" style="shape=partialRectangle;html=1;whiteSpace=wrap;connectable=0;strokeColor=inherit;overflow=hidden;fillColor=none;top=0;left=0;bottom=0;right=0;pointerEvents=1;fontSize=16;" parent="1WeZYifnovVVl7Edg_Gf-70" vertex="1">
          <mxGeometry x="473" width="26" height="30" as="geometry">
            <mxRectangle width="26" height="30" as="alternateBounds" />
          </mxGeometry>
        </mxCell>
        <mxCell id="1WeZYifnovVVl7Edg_Gf-90" value="20" style="shape=partialRectangle;html=1;whiteSpace=wrap;connectable=0;strokeColor=inherit;overflow=hidden;fillColor=none;top=0;left=0;bottom=0;right=0;pointerEvents=1;fontSize=16;" parent="1WeZYifnovVVl7Edg_Gf-70" vertex="1">
          <mxGeometry x="499" width="26" height="30" as="geometry">
            <mxRectangle width="26" height="30" as="alternateBounds" />
          </mxGeometry>
        </mxCell>
        <mxCell id="1WeZYifnovVVl7Edg_Gf-91" value="21" style="shape=partialRectangle;html=1;whiteSpace=wrap;connectable=0;strokeColor=inherit;overflow=hidden;fillColor=none;top=0;left=0;bottom=0;right=0;pointerEvents=1;fontSize=16;" parent="1WeZYifnovVVl7Edg_Gf-70" vertex="1">
          <mxGeometry x="525" width="26" height="30" as="geometry">
            <mxRectangle width="26" height="30" as="alternateBounds" />
          </mxGeometry>
        </mxCell>
        <mxCell id="1WeZYifnovVVl7Edg_Gf-92" value="22" style="shape=partialRectangle;html=1;whiteSpace=wrap;connectable=0;strokeColor=inherit;overflow=hidden;fillColor=none;top=0;left=0;bottom=0;right=0;pointerEvents=1;fontSize=16;" parent="1WeZYifnovVVl7Edg_Gf-70" vertex="1">
          <mxGeometry x="551" width="27" height="30" as="geometry">
            <mxRectangle width="27" height="30" as="alternateBounds" />
          </mxGeometry>
        </mxCell>
        <mxCell id="1WeZYifnovVVl7Edg_Gf-93" value="23" style="shape=partialRectangle;html=1;whiteSpace=wrap;connectable=0;strokeColor=inherit;overflow=hidden;fillColor=none;top=0;left=0;bottom=0;right=0;pointerEvents=1;fontSize=16;" parent="1WeZYifnovVVl7Edg_Gf-70" vertex="1">
          <mxGeometry x="578" width="26" height="30" as="geometry">
            <mxRectangle width="26" height="30" as="alternateBounds" />
          </mxGeometry>
        </mxCell>
        <mxCell id="1WeZYifnovVVl7Edg_Gf-94" value="24" style="shape=partialRectangle;html=1;whiteSpace=wrap;connectable=0;strokeColor=inherit;overflow=hidden;fillColor=none;top=0;left=0;bottom=0;right=0;pointerEvents=1;fontSize=16;" parent="1WeZYifnovVVl7Edg_Gf-70" vertex="1">
          <mxGeometry x="604" width="26" height="30" as="geometry">
            <mxRectangle width="26" height="30" as="alternateBounds" />
          </mxGeometry>
        </mxCell>
        <mxCell id="1WeZYifnovVVl7Edg_Gf-95" value="" style="shape=table;startSize=0;container=1;collapsible=0;childLayout=tableLayout;verticalAlign=middle;align=center;" parent="1" vertex="1">
          <mxGeometry x="950" y="533" width="630" height="60" as="geometry" />
        </mxCell>
        <mxCell id="1WeZYifnovVVl7Edg_Gf-96" style="shape=tableRow;horizontal=0;startSize=0;swimlaneHead=0;swimlaneBody=0;strokeColor=inherit;top=0;left=0;bottom=0;right=0;collapsible=0;dropTarget=0;fillColor=none;points=[[0,0.5],[1,0.5]];portConstraint=eastwest;fontSize=16;" parent="1WeZYifnovVVl7Edg_Gf-95" vertex="1">
          <mxGeometry width="630" height="30" as="geometry" />
        </mxCell>
        <mxCell id="1WeZYifnovVVl7Edg_Gf-97" value="0" style="shape=partialRectangle;html=1;whiteSpace=wrap;connectable=0;strokeColor=inherit;overflow=hidden;fillColor=none;top=0;left=0;bottom=0;right=0;pointerEvents=1;fontSize=16;" parent="1WeZYifnovVVl7Edg_Gf-96" vertex="1">
          <mxGeometry width="26" height="30" as="geometry">
            <mxRectangle width="26" height="30" as="alternateBounds" />
          </mxGeometry>
        </mxCell>
        <mxCell id="1WeZYifnovVVl7Edg_Gf-98" value="2" style="shape=partialRectangle;html=1;whiteSpace=wrap;connectable=0;strokeColor=inherit;overflow=hidden;fillColor=none;top=0;left=0;bottom=0;right=0;pointerEvents=1;fontSize=16;" parent="1WeZYifnovVVl7Edg_Gf-96" vertex="1">
          <mxGeometry x="26" width="27" height="30" as="geometry">
            <mxRectangle width="27" height="30" as="alternateBounds" />
          </mxGeometry>
        </mxCell>
        <mxCell id="1WeZYifnovVVl7Edg_Gf-99" value="4" style="shape=partialRectangle;html=1;whiteSpace=wrap;connectable=0;strokeColor=inherit;overflow=hidden;fillColor=none;top=0;left=0;bottom=0;right=0;pointerEvents=1;fontSize=16;" parent="1WeZYifnovVVl7Edg_Gf-96" vertex="1">
          <mxGeometry x="53" width="26" height="30" as="geometry">
            <mxRectangle width="26" height="30" as="alternateBounds" />
          </mxGeometry>
        </mxCell>
        <mxCell id="1WeZYifnovVVl7Edg_Gf-100" value="6" style="shape=partialRectangle;html=1;whiteSpace=wrap;connectable=0;strokeColor=inherit;overflow=hidden;fillColor=none;top=0;left=0;bottom=0;right=0;pointerEvents=1;fontSize=16;" parent="1WeZYifnovVVl7Edg_Gf-96" vertex="1">
          <mxGeometry x="79" width="26" height="30" as="geometry">
            <mxRectangle width="26" height="30" as="alternateBounds" />
          </mxGeometry>
        </mxCell>
        <mxCell id="1WeZYifnovVVl7Edg_Gf-101" value="8" style="shape=partialRectangle;html=1;whiteSpace=wrap;connectable=0;strokeColor=inherit;overflow=hidden;fillColor=none;top=0;left=0;bottom=0;right=0;pointerEvents=1;fontSize=16;" parent="1WeZYifnovVVl7Edg_Gf-96" vertex="1">
          <mxGeometry x="105" width="26" height="30" as="geometry">
            <mxRectangle width="26" height="30" as="alternateBounds" />
          </mxGeometry>
        </mxCell>
        <mxCell id="1WeZYifnovVVl7Edg_Gf-102" value="10" style="shape=partialRectangle;html=1;whiteSpace=wrap;connectable=0;strokeColor=inherit;overflow=hidden;fillColor=none;top=0;left=0;bottom=0;right=0;pointerEvents=1;fontSize=16;" parent="1WeZYifnovVVl7Edg_Gf-96" vertex="1">
          <mxGeometry x="131" width="27" height="30" as="geometry">
            <mxRectangle width="27" height="30" as="alternateBounds" />
          </mxGeometry>
        </mxCell>
        <mxCell id="1WeZYifnovVVl7Edg_Gf-103" value="12" style="shape=partialRectangle;html=1;whiteSpace=wrap;connectable=0;strokeColor=inherit;overflow=hidden;fillColor=none;top=0;left=0;bottom=0;right=0;pointerEvents=1;fontSize=16;" parent="1WeZYifnovVVl7Edg_Gf-96" vertex="1">
          <mxGeometry x="158" width="26" height="30" as="geometry">
            <mxRectangle width="26" height="30" as="alternateBounds" />
          </mxGeometry>
        </mxCell>
        <mxCell id="1WeZYifnovVVl7Edg_Gf-104" value="14" style="shape=partialRectangle;html=1;whiteSpace=wrap;connectable=0;strokeColor=inherit;overflow=hidden;fillColor=none;top=0;left=0;bottom=0;right=0;pointerEvents=1;fontSize=16;" parent="1WeZYifnovVVl7Edg_Gf-96" vertex="1">
          <mxGeometry x="184" width="26" height="30" as="geometry">
            <mxRectangle width="26" height="30" as="alternateBounds" />
          </mxGeometry>
        </mxCell>
        <mxCell id="1WeZYifnovVVl7Edg_Gf-105" value="16" style="shape=partialRectangle;html=1;whiteSpace=wrap;connectable=0;strokeColor=inherit;overflow=hidden;fillColor=none;top=0;left=0;bottom=0;right=0;pointerEvents=1;fontSize=16;" parent="1WeZYifnovVVl7Edg_Gf-96" vertex="1">
          <mxGeometry x="210" width="26" height="30" as="geometry">
            <mxRectangle width="26" height="30" as="alternateBounds" />
          </mxGeometry>
        </mxCell>
        <mxCell id="1WeZYifnovVVl7Edg_Gf-106" value="18" style="shape=partialRectangle;html=1;whiteSpace=wrap;connectable=0;strokeColor=inherit;overflow=hidden;fillColor=none;top=0;left=0;bottom=0;right=0;pointerEvents=1;fontSize=16;" parent="1WeZYifnovVVl7Edg_Gf-96" vertex="1">
          <mxGeometry x="236" width="27" height="30" as="geometry">
            <mxRectangle width="27" height="30" as="alternateBounds" />
          </mxGeometry>
        </mxCell>
        <mxCell id="1WeZYifnovVVl7Edg_Gf-107" value="20" style="shape=partialRectangle;html=1;whiteSpace=wrap;connectable=0;strokeColor=inherit;overflow=hidden;fillColor=none;top=0;left=0;bottom=0;right=0;pointerEvents=1;fontSize=16;" parent="1WeZYifnovVVl7Edg_Gf-96" vertex="1">
          <mxGeometry x="263" width="26" height="30" as="geometry">
            <mxRectangle width="26" height="30" as="alternateBounds" />
          </mxGeometry>
        </mxCell>
        <mxCell id="1WeZYifnovVVl7Edg_Gf-108" value="22" style="shape=partialRectangle;html=1;whiteSpace=wrap;connectable=0;strokeColor=inherit;overflow=hidden;fillColor=none;top=0;left=0;bottom=0;right=0;pointerEvents=1;fontSize=16;" parent="1WeZYifnovVVl7Edg_Gf-96" vertex="1">
          <mxGeometry x="289" width="26" height="30" as="geometry">
            <mxRectangle width="26" height="30" as="alternateBounds" />
          </mxGeometry>
        </mxCell>
        <mxCell id="1WeZYifnovVVl7Edg_Gf-109" value="24" style="shape=partialRectangle;html=1;whiteSpace=wrap;connectable=0;strokeColor=inherit;overflow=hidden;fillColor=none;top=0;left=0;bottom=0;right=0;pointerEvents=1;fontSize=16;" parent="1WeZYifnovVVl7Edg_Gf-96" vertex="1">
          <mxGeometry x="315" width="26" height="30" as="geometry">
            <mxRectangle width="26" height="30" as="alternateBounds" />
          </mxGeometry>
        </mxCell>
        <mxCell id="1WeZYifnovVVl7Edg_Gf-110" value="26" style="shape=partialRectangle;html=1;whiteSpace=wrap;connectable=0;strokeColor=inherit;overflow=hidden;fillColor=none;top=0;left=0;bottom=0;right=0;pointerEvents=1;fontSize=16;" parent="1WeZYifnovVVl7Edg_Gf-96" vertex="1">
          <mxGeometry x="341" width="27" height="30" as="geometry">
            <mxRectangle width="27" height="30" as="alternateBounds" />
          </mxGeometry>
        </mxCell>
        <mxCell id="1WeZYifnovVVl7Edg_Gf-111" value="28" style="shape=partialRectangle;html=1;whiteSpace=wrap;connectable=0;strokeColor=inherit;overflow=hidden;fillColor=none;top=0;left=0;bottom=0;right=0;pointerEvents=1;fontSize=16;" parent="1WeZYifnovVVl7Edg_Gf-96" vertex="1">
          <mxGeometry x="368" width="26" height="30" as="geometry">
            <mxRectangle width="26" height="30" as="alternateBounds" />
          </mxGeometry>
        </mxCell>
        <mxCell id="1WeZYifnovVVl7Edg_Gf-112" value="30" style="shape=partialRectangle;html=1;whiteSpace=wrap;connectable=0;strokeColor=inherit;overflow=hidden;fillColor=none;top=0;left=0;bottom=0;right=0;pointerEvents=1;fontSize=16;" parent="1WeZYifnovVVl7Edg_Gf-96" vertex="1">
          <mxGeometry x="394" width="26" height="30" as="geometry">
            <mxRectangle width="26" height="30" as="alternateBounds" />
          </mxGeometry>
        </mxCell>
        <mxCell id="1WeZYifnovVVl7Edg_Gf-113" value="32" style="shape=partialRectangle;html=1;whiteSpace=wrap;connectable=0;strokeColor=inherit;overflow=hidden;fillColor=none;top=0;left=0;bottom=0;right=0;pointerEvents=1;fontSize=16;" parent="1WeZYifnovVVl7Edg_Gf-96" vertex="1">
          <mxGeometry x="420" width="26" height="30" as="geometry">
            <mxRectangle width="26" height="30" as="alternateBounds" />
          </mxGeometry>
        </mxCell>
        <mxCell id="1WeZYifnovVVl7Edg_Gf-114" value="34" style="shape=partialRectangle;html=1;whiteSpace=wrap;connectable=0;strokeColor=inherit;overflow=hidden;fillColor=none;top=0;left=0;bottom=0;right=0;pointerEvents=1;fontSize=16;" parent="1WeZYifnovVVl7Edg_Gf-96" vertex="1">
          <mxGeometry x="446" width="27" height="30" as="geometry">
            <mxRectangle width="27" height="30" as="alternateBounds" />
          </mxGeometry>
        </mxCell>
        <mxCell id="1WeZYifnovVVl7Edg_Gf-115" value="36" style="shape=partialRectangle;html=1;whiteSpace=wrap;connectable=0;strokeColor=inherit;overflow=hidden;fillColor=none;top=0;left=0;bottom=0;right=0;pointerEvents=1;fontSize=16;" parent="1WeZYifnovVVl7Edg_Gf-96" vertex="1">
          <mxGeometry x="473" width="26" height="30" as="geometry">
            <mxRectangle width="26" height="30" as="alternateBounds" />
          </mxGeometry>
        </mxCell>
        <mxCell id="1WeZYifnovVVl7Edg_Gf-116" value="38" style="shape=partialRectangle;html=1;whiteSpace=wrap;connectable=0;strokeColor=inherit;overflow=hidden;fillColor=none;top=0;left=0;bottom=0;right=0;pointerEvents=1;fontSize=16;" parent="1WeZYifnovVVl7Edg_Gf-96" vertex="1">
          <mxGeometry x="499" width="26" height="30" as="geometry">
            <mxRectangle width="26" height="30" as="alternateBounds" />
          </mxGeometry>
        </mxCell>
        <mxCell id="1WeZYifnovVVl7Edg_Gf-117" value="40" style="shape=partialRectangle;html=1;whiteSpace=wrap;connectable=0;strokeColor=inherit;overflow=hidden;fillColor=none;top=0;left=0;bottom=0;right=0;pointerEvents=1;fontSize=16;" parent="1WeZYifnovVVl7Edg_Gf-96" vertex="1">
          <mxGeometry x="525" width="26" height="30" as="geometry">
            <mxRectangle width="26" height="30" as="alternateBounds" />
          </mxGeometry>
        </mxCell>
        <mxCell id="1WeZYifnovVVl7Edg_Gf-118" value="42" style="shape=partialRectangle;html=1;whiteSpace=wrap;connectable=0;strokeColor=inherit;overflow=hidden;fillColor=none;top=0;left=0;bottom=0;right=0;pointerEvents=1;fontSize=16;" parent="1WeZYifnovVVl7Edg_Gf-96" vertex="1">
          <mxGeometry x="551" width="27" height="30" as="geometry">
            <mxRectangle width="27" height="30" as="alternateBounds" />
          </mxGeometry>
        </mxCell>
        <mxCell id="1WeZYifnovVVl7Edg_Gf-119" value="44" style="shape=partialRectangle;html=1;whiteSpace=wrap;connectable=0;strokeColor=inherit;overflow=hidden;fillColor=none;top=0;left=0;bottom=0;right=0;pointerEvents=1;fontSize=16;" parent="1WeZYifnovVVl7Edg_Gf-96" vertex="1">
          <mxGeometry x="578" width="26" height="30" as="geometry">
            <mxRectangle width="26" height="30" as="alternateBounds" />
          </mxGeometry>
        </mxCell>
        <mxCell id="1WeZYifnovVVl7Edg_Gf-120" value="46" style="shape=partialRectangle;html=1;whiteSpace=wrap;connectable=0;strokeColor=inherit;overflow=hidden;fillColor=none;top=0;left=0;bottom=0;right=0;pointerEvents=1;fontSize=16;" parent="1WeZYifnovVVl7Edg_Gf-96" vertex="1">
          <mxGeometry x="604" width="26" height="30" as="geometry">
            <mxRectangle width="26" height="30" as="alternateBounds" />
          </mxGeometry>
        </mxCell>
        <mxCell id="1WeZYifnovVVl7Edg_Gf-121" style="shape=tableRow;horizontal=0;startSize=0;swimlaneHead=0;swimlaneBody=0;strokeColor=inherit;top=0;left=0;bottom=0;right=0;collapsible=0;dropTarget=0;fillColor=none;points=[[0,0.5],[1,0.5]];portConstraint=eastwest;fontSize=16;" parent="1WeZYifnovVVl7Edg_Gf-95" vertex="1">
          <mxGeometry y="30" width="630" height="30" as="geometry" />
        </mxCell>
        <mxCell id="1WeZYifnovVVl7Edg_Gf-122" value="1" style="shape=partialRectangle;html=1;whiteSpace=wrap;connectable=0;strokeColor=inherit;overflow=hidden;fillColor=none;top=0;left=0;bottom=0;right=0;pointerEvents=1;fontSize=16;" parent="1WeZYifnovVVl7Edg_Gf-121" vertex="1">
          <mxGeometry width="26" height="30" as="geometry">
            <mxRectangle width="26" height="30" as="alternateBounds" />
          </mxGeometry>
        </mxCell>
        <mxCell id="1WeZYifnovVVl7Edg_Gf-123" value="3" style="shape=partialRectangle;html=1;whiteSpace=wrap;connectable=0;strokeColor=inherit;overflow=hidden;fillColor=none;top=0;left=0;bottom=0;right=0;pointerEvents=1;fontSize=16;" parent="1WeZYifnovVVl7Edg_Gf-121" vertex="1">
          <mxGeometry x="26" width="27" height="30" as="geometry">
            <mxRectangle width="27" height="30" as="alternateBounds" />
          </mxGeometry>
        </mxCell>
        <mxCell id="1WeZYifnovVVl7Edg_Gf-124" value="5" style="shape=partialRectangle;html=1;whiteSpace=wrap;connectable=0;strokeColor=inherit;overflow=hidden;fillColor=none;top=0;left=0;bottom=0;right=0;pointerEvents=1;fontSize=16;" parent="1WeZYifnovVVl7Edg_Gf-121" vertex="1">
          <mxGeometry x="53" width="26" height="30" as="geometry">
            <mxRectangle width="26" height="30" as="alternateBounds" />
          </mxGeometry>
        </mxCell>
        <mxCell id="1WeZYifnovVVl7Edg_Gf-125" value="7" style="shape=partialRectangle;html=1;whiteSpace=wrap;connectable=0;strokeColor=inherit;overflow=hidden;fillColor=none;top=0;left=0;bottom=0;right=0;pointerEvents=1;fontSize=16;" parent="1WeZYifnovVVl7Edg_Gf-121" vertex="1">
          <mxGeometry x="79" width="26" height="30" as="geometry">
            <mxRectangle width="26" height="30" as="alternateBounds" />
          </mxGeometry>
        </mxCell>
        <mxCell id="1WeZYifnovVVl7Edg_Gf-126" value="9" style="shape=partialRectangle;html=1;whiteSpace=wrap;connectable=0;strokeColor=inherit;overflow=hidden;fillColor=none;top=0;left=0;bottom=0;right=0;pointerEvents=1;fontSize=16;" parent="1WeZYifnovVVl7Edg_Gf-121" vertex="1">
          <mxGeometry x="105" width="26" height="30" as="geometry">
            <mxRectangle width="26" height="30" as="alternateBounds" />
          </mxGeometry>
        </mxCell>
        <mxCell id="1WeZYifnovVVl7Edg_Gf-127" value="11" style="shape=partialRectangle;html=1;whiteSpace=wrap;connectable=0;strokeColor=inherit;overflow=hidden;fillColor=none;top=0;left=0;bottom=0;right=0;pointerEvents=1;fontSize=16;" parent="1WeZYifnovVVl7Edg_Gf-121" vertex="1">
          <mxGeometry x="131" width="27" height="30" as="geometry">
            <mxRectangle width="27" height="30" as="alternateBounds" />
          </mxGeometry>
        </mxCell>
        <mxCell id="1WeZYifnovVVl7Edg_Gf-128" value="13" style="shape=partialRectangle;html=1;whiteSpace=wrap;connectable=0;strokeColor=inherit;overflow=hidden;fillColor=none;top=0;left=0;bottom=0;right=0;pointerEvents=1;fontSize=16;" parent="1WeZYifnovVVl7Edg_Gf-121" vertex="1">
          <mxGeometry x="158" width="26" height="30" as="geometry">
            <mxRectangle width="26" height="30" as="alternateBounds" />
          </mxGeometry>
        </mxCell>
        <mxCell id="1WeZYifnovVVl7Edg_Gf-129" value="15" style="shape=partialRectangle;html=1;whiteSpace=wrap;connectable=0;strokeColor=inherit;overflow=hidden;fillColor=none;top=0;left=0;bottom=0;right=0;pointerEvents=1;fontSize=16;" parent="1WeZYifnovVVl7Edg_Gf-121" vertex="1">
          <mxGeometry x="184" width="26" height="30" as="geometry">
            <mxRectangle width="26" height="30" as="alternateBounds" />
          </mxGeometry>
        </mxCell>
        <mxCell id="1WeZYifnovVVl7Edg_Gf-130" value="17" style="shape=partialRectangle;html=1;whiteSpace=wrap;connectable=0;strokeColor=inherit;overflow=hidden;fillColor=none;top=0;left=0;bottom=0;right=0;pointerEvents=1;fontSize=16;" parent="1WeZYifnovVVl7Edg_Gf-121" vertex="1">
          <mxGeometry x="210" width="26" height="30" as="geometry">
            <mxRectangle width="26" height="30" as="alternateBounds" />
          </mxGeometry>
        </mxCell>
        <mxCell id="1WeZYifnovVVl7Edg_Gf-131" value="19" style="shape=partialRectangle;html=1;whiteSpace=wrap;connectable=0;strokeColor=inherit;overflow=hidden;fillColor=none;top=0;left=0;bottom=0;right=0;pointerEvents=1;fontSize=16;" parent="1WeZYifnovVVl7Edg_Gf-121" vertex="1">
          <mxGeometry x="236" width="27" height="30" as="geometry">
            <mxRectangle width="27" height="30" as="alternateBounds" />
          </mxGeometry>
        </mxCell>
        <mxCell id="1WeZYifnovVVl7Edg_Gf-132" value="21" style="shape=partialRectangle;html=1;whiteSpace=wrap;connectable=0;strokeColor=inherit;overflow=hidden;fillColor=none;top=0;left=0;bottom=0;right=0;pointerEvents=1;fontSize=16;" parent="1WeZYifnovVVl7Edg_Gf-121" vertex="1">
          <mxGeometry x="263" width="26" height="30" as="geometry">
            <mxRectangle width="26" height="30" as="alternateBounds" />
          </mxGeometry>
        </mxCell>
        <mxCell id="1WeZYifnovVVl7Edg_Gf-133" value="23" style="shape=partialRectangle;html=1;whiteSpace=wrap;connectable=0;strokeColor=inherit;overflow=hidden;fillColor=none;top=0;left=0;bottom=0;right=0;pointerEvents=1;fontSize=16;" parent="1WeZYifnovVVl7Edg_Gf-121" vertex="1">
          <mxGeometry x="289" width="26" height="30" as="geometry">
            <mxRectangle width="26" height="30" as="alternateBounds" />
          </mxGeometry>
        </mxCell>
        <mxCell id="1WeZYifnovVVl7Edg_Gf-134" value="25" style="shape=partialRectangle;html=1;whiteSpace=wrap;connectable=0;strokeColor=inherit;overflow=hidden;fillColor=none;top=0;left=0;bottom=0;right=0;pointerEvents=1;fontSize=16;" parent="1WeZYifnovVVl7Edg_Gf-121" vertex="1">
          <mxGeometry x="315" width="26" height="30" as="geometry">
            <mxRectangle width="26" height="30" as="alternateBounds" />
          </mxGeometry>
        </mxCell>
        <mxCell id="1WeZYifnovVVl7Edg_Gf-135" value="27" style="shape=partialRectangle;html=1;whiteSpace=wrap;connectable=0;strokeColor=inherit;overflow=hidden;fillColor=none;top=0;left=0;bottom=0;right=0;pointerEvents=1;fontSize=16;" parent="1WeZYifnovVVl7Edg_Gf-121" vertex="1">
          <mxGeometry x="341" width="27" height="30" as="geometry">
            <mxRectangle width="27" height="30" as="alternateBounds" />
          </mxGeometry>
        </mxCell>
        <mxCell id="1WeZYifnovVVl7Edg_Gf-136" value="29" style="shape=partialRectangle;html=1;whiteSpace=wrap;connectable=0;strokeColor=inherit;overflow=hidden;fillColor=none;top=0;left=0;bottom=0;right=0;pointerEvents=1;fontSize=16;" parent="1WeZYifnovVVl7Edg_Gf-121" vertex="1">
          <mxGeometry x="368" width="26" height="30" as="geometry">
            <mxRectangle width="26" height="30" as="alternateBounds" />
          </mxGeometry>
        </mxCell>
        <mxCell id="1WeZYifnovVVl7Edg_Gf-137" value="31" style="shape=partialRectangle;html=1;whiteSpace=wrap;connectable=0;strokeColor=inherit;overflow=hidden;fillColor=none;top=0;left=0;bottom=0;right=0;pointerEvents=1;fontSize=16;" parent="1WeZYifnovVVl7Edg_Gf-121" vertex="1">
          <mxGeometry x="394" width="26" height="30" as="geometry">
            <mxRectangle width="26" height="30" as="alternateBounds" />
          </mxGeometry>
        </mxCell>
        <mxCell id="1WeZYifnovVVl7Edg_Gf-138" value="33" style="shape=partialRectangle;html=1;whiteSpace=wrap;connectable=0;strokeColor=inherit;overflow=hidden;fillColor=none;top=0;left=0;bottom=0;right=0;pointerEvents=1;fontSize=16;" parent="1WeZYifnovVVl7Edg_Gf-121" vertex="1">
          <mxGeometry x="420" width="26" height="30" as="geometry">
            <mxRectangle width="26" height="30" as="alternateBounds" />
          </mxGeometry>
        </mxCell>
        <mxCell id="1WeZYifnovVVl7Edg_Gf-139" value="35" style="shape=partialRectangle;html=1;whiteSpace=wrap;connectable=0;strokeColor=inherit;overflow=hidden;fillColor=none;top=0;left=0;bottom=0;right=0;pointerEvents=1;fontSize=16;" parent="1WeZYifnovVVl7Edg_Gf-121" vertex="1">
          <mxGeometry x="446" width="27" height="30" as="geometry">
            <mxRectangle width="27" height="30" as="alternateBounds" />
          </mxGeometry>
        </mxCell>
        <mxCell id="1WeZYifnovVVl7Edg_Gf-140" value="37" style="shape=partialRectangle;html=1;whiteSpace=wrap;connectable=0;strokeColor=inherit;overflow=hidden;fillColor=none;top=0;left=0;bottom=0;right=0;pointerEvents=1;fontSize=16;" parent="1WeZYifnovVVl7Edg_Gf-121" vertex="1">
          <mxGeometry x="473" width="26" height="30" as="geometry">
            <mxRectangle width="26" height="30" as="alternateBounds" />
          </mxGeometry>
        </mxCell>
        <mxCell id="1WeZYifnovVVl7Edg_Gf-141" value="39" style="shape=partialRectangle;html=1;whiteSpace=wrap;connectable=0;strokeColor=inherit;overflow=hidden;fillColor=none;top=0;left=0;bottom=0;right=0;pointerEvents=1;fontSize=16;" parent="1WeZYifnovVVl7Edg_Gf-121" vertex="1">
          <mxGeometry x="499" width="26" height="30" as="geometry">
            <mxRectangle width="26" height="30" as="alternateBounds" />
          </mxGeometry>
        </mxCell>
        <mxCell id="1WeZYifnovVVl7Edg_Gf-142" value="41" style="shape=partialRectangle;html=1;whiteSpace=wrap;connectable=0;strokeColor=inherit;overflow=hidden;fillColor=none;top=0;left=0;bottom=0;right=0;pointerEvents=1;fontSize=16;" parent="1WeZYifnovVVl7Edg_Gf-121" vertex="1">
          <mxGeometry x="525" width="26" height="30" as="geometry">
            <mxRectangle width="26" height="30" as="alternateBounds" />
          </mxGeometry>
        </mxCell>
        <mxCell id="1WeZYifnovVVl7Edg_Gf-143" value="43" style="shape=partialRectangle;html=1;whiteSpace=wrap;connectable=0;strokeColor=inherit;overflow=hidden;fillColor=none;top=0;left=0;bottom=0;right=0;pointerEvents=1;fontSize=16;" parent="1WeZYifnovVVl7Edg_Gf-121" vertex="1">
          <mxGeometry x="551" width="27" height="30" as="geometry">
            <mxRectangle width="27" height="30" as="alternateBounds" />
          </mxGeometry>
        </mxCell>
        <mxCell id="1WeZYifnovVVl7Edg_Gf-144" value="45" style="shape=partialRectangle;html=1;whiteSpace=wrap;connectable=0;strokeColor=inherit;overflow=hidden;fillColor=none;top=0;left=0;bottom=0;right=0;pointerEvents=1;fontSize=16;" parent="1WeZYifnovVVl7Edg_Gf-121" vertex="1">
          <mxGeometry x="578" width="26" height="30" as="geometry">
            <mxRectangle width="26" height="30" as="alternateBounds" />
          </mxGeometry>
        </mxCell>
        <mxCell id="1WeZYifnovVVl7Edg_Gf-145" value="47" style="shape=partialRectangle;html=1;whiteSpace=wrap;connectable=0;strokeColor=inherit;overflow=hidden;fillColor=none;top=0;left=0;bottom=0;right=0;pointerEvents=1;fontSize=16;" parent="1WeZYifnovVVl7Edg_Gf-121" vertex="1">
          <mxGeometry x="604" width="26" height="30" as="geometry">
            <mxRectangle width="26" height="30" as="alternateBounds" />
          </mxGeometry>
        </mxCell>
        <mxCell id="1WeZYifnovVVl7Edg_Gf-146" value="Tower" style="rounded=0;whiteSpace=wrap;html=1;" parent="1" vertex="1">
          <mxGeometry x="880" y="270" width="80" height="40" as="geometry" />
        </mxCell>
        <mxCell id="1WeZYifnovVVl7Edg_Gf-165" value="" style="shape=table;startSize=0;container=1;collapsible=0;childLayout=tableLayout;fontSize=12;" parent="1" vertex="1">
          <mxGeometry x="1470" y="140" width="190" height="80" as="geometry" />
        </mxCell>
        <mxCell id="1WeZYifnovVVl7Edg_Gf-166" value="" style="shape=tableRow;horizontal=0;startSize=0;swimlaneHead=0;swimlaneBody=0;strokeColor=inherit;top=0;left=0;bottom=0;right=0;collapsible=0;dropTarget=0;fillColor=none;points=[[0,0.5],[1,0.5]];portConstraint=eastwest;fontSize=16;" parent="1WeZYifnovVVl7Edg_Gf-165" vertex="1">
          <mxGeometry width="190" height="40" as="geometry" />
        </mxCell>
        <mxCell id="1WeZYifnovVVl7Edg_Gf-167" value="Server1" style="shape=partialRectangle;html=1;whiteSpace=wrap;connectable=0;strokeColor=inherit;overflow=hidden;fillColor=none;top=0;left=0;bottom=0;right=0;pointerEvents=1;fontSize=12;rowspan=1;colspan=5;" parent="1WeZYifnovVVl7Edg_Gf-166" vertex="1">
          <mxGeometry width="190" height="40" as="geometry">
            <mxRectangle width="38" height="40" as="alternateBounds" />
          </mxGeometry>
        </mxCell>
        <mxCell id="1WeZYifnovVVl7Edg_Gf-168" value="" style="shape=partialRectangle;html=1;whiteSpace=wrap;connectable=0;strokeColor=inherit;overflow=hidden;fillColor=none;top=0;left=0;bottom=0;right=0;pointerEvents=1;fontSize=16;" parent="1WeZYifnovVVl7Edg_Gf-166" vertex="1" visible="0">
          <mxGeometry x="38" width="38" height="40" as="geometry">
            <mxRectangle width="38" height="40" as="alternateBounds" />
          </mxGeometry>
        </mxCell>
        <mxCell id="1WeZYifnovVVl7Edg_Gf-169" value="" style="shape=partialRectangle;html=1;whiteSpace=wrap;connectable=0;strokeColor=inherit;overflow=hidden;fillColor=none;top=0;left=0;bottom=0;right=0;pointerEvents=1;fontSize=16;" parent="1WeZYifnovVVl7Edg_Gf-166" vertex="1" visible="0">
          <mxGeometry x="76" width="38" height="40" as="geometry">
            <mxRectangle width="38" height="40" as="alternateBounds" />
          </mxGeometry>
        </mxCell>
        <mxCell id="1WeZYifnovVVl7Edg_Gf-178" style="shape=partialRectangle;html=1;whiteSpace=wrap;connectable=0;strokeColor=inherit;overflow=hidden;fillColor=none;top=0;left=0;bottom=0;right=0;pointerEvents=1;fontSize=16;" parent="1WeZYifnovVVl7Edg_Gf-166" vertex="1" visible="0">
          <mxGeometry x="114" width="38" height="40" as="geometry">
            <mxRectangle width="38" height="40" as="alternateBounds" />
          </mxGeometry>
        </mxCell>
        <mxCell id="1WeZYifnovVVl7Edg_Gf-180" style="shape=partialRectangle;html=1;whiteSpace=wrap;connectable=0;strokeColor=inherit;overflow=hidden;fillColor=none;top=0;left=0;bottom=0;right=0;pointerEvents=1;fontSize=16;" parent="1WeZYifnovVVl7Edg_Gf-166" vertex="1" visible="0">
          <mxGeometry x="152" width="38" height="40" as="geometry">
            <mxRectangle width="38" height="40" as="alternateBounds" />
          </mxGeometry>
        </mxCell>
        <mxCell id="1WeZYifnovVVl7Edg_Gf-170" value="" style="shape=tableRow;horizontal=0;startSize=0;swimlaneHead=0;swimlaneBody=0;strokeColor=inherit;top=0;left=0;bottom=0;right=0;collapsible=0;dropTarget=0;fillColor=none;points=[[0,0.5],[1,0.5]];portConstraint=eastwest;fontSize=16;" parent="1WeZYifnovVVl7Edg_Gf-165" vertex="1">
          <mxGeometry y="40" width="190" height="40" as="geometry" />
        </mxCell>
        <mxCell id="1WeZYifnovVVl7Edg_Gf-171" value="NIC4" style="shape=partialRectangle;html=1;whiteSpace=wrap;connectable=0;strokeColor=inherit;overflow=hidden;fillColor=none;top=0;left=0;bottom=0;right=0;pointerEvents=1;fontSize=12;" parent="1WeZYifnovVVl7Edg_Gf-170" vertex="1">
          <mxGeometry width="38" height="40" as="geometry">
            <mxRectangle width="38" height="40" as="alternateBounds" />
          </mxGeometry>
        </mxCell>
        <mxCell id="1WeZYifnovVVl7Edg_Gf-172" value="NIC3" style="shape=partialRectangle;html=1;whiteSpace=wrap;connectable=0;strokeColor=inherit;overflow=hidden;fillColor=none;top=0;left=0;bottom=0;right=0;pointerEvents=1;fontSize=12;" parent="1WeZYifnovVVl7Edg_Gf-170" vertex="1">
          <mxGeometry x="38" width="38" height="40" as="geometry">
            <mxRectangle width="38" height="40" as="alternateBounds" />
          </mxGeometry>
        </mxCell>
        <mxCell id="1WeZYifnovVVl7Edg_Gf-173" value="NIC2" style="shape=partialRectangle;html=1;whiteSpace=wrap;connectable=0;strokeColor=inherit;overflow=hidden;fillColor=none;top=0;left=0;bottom=0;right=0;pointerEvents=1;fontSize=12;" parent="1WeZYifnovVVl7Edg_Gf-170" vertex="1">
          <mxGeometry x="76" width="38" height="40" as="geometry">
            <mxRectangle width="38" height="40" as="alternateBounds" />
          </mxGeometry>
        </mxCell>
        <mxCell id="1WeZYifnovVVl7Edg_Gf-179" value="NIC1" style="shape=partialRectangle;html=1;whiteSpace=wrap;connectable=0;strokeColor=inherit;overflow=hidden;fillColor=none;top=0;left=0;bottom=0;right=0;pointerEvents=1;fontSize=12;" parent="1WeZYifnovVVl7Edg_Gf-170" vertex="1">
          <mxGeometry x="114" width="38" height="40" as="geometry">
            <mxRectangle width="38" height="40" as="alternateBounds" />
          </mxGeometry>
        </mxCell>
        <mxCell id="1WeZYifnovVVl7Edg_Gf-181" value="iDRAC" style="shape=partialRectangle;html=1;whiteSpace=wrap;connectable=0;strokeColor=inherit;overflow=hidden;fillColor=none;top=0;left=0;bottom=0;right=0;pointerEvents=1;fontSize=12;" parent="1WeZYifnovVVl7Edg_Gf-170" vertex="1">
          <mxGeometry x="152" width="38" height="40" as="geometry">
            <mxRectangle width="38" height="40" as="alternateBounds" />
          </mxGeometry>
        </mxCell>
        <mxCell id="1WeZYifnovVVl7Edg_Gf-182" value="" style="shape=table;startSize=0;container=1;collapsible=0;childLayout=tableLayout;fontSize=12;" parent="1" vertex="1">
          <mxGeometry x="1440" y="270" width="190" height="80" as="geometry" />
        </mxCell>
        <mxCell id="1WeZYifnovVVl7Edg_Gf-183" value="" style="shape=tableRow;horizontal=0;startSize=0;swimlaneHead=0;swimlaneBody=0;strokeColor=inherit;top=0;left=0;bottom=0;right=0;collapsible=0;dropTarget=0;fillColor=none;points=[[0,0.5],[1,0.5]];portConstraint=eastwest;fontSize=16;" parent="1WeZYifnovVVl7Edg_Gf-182" vertex="1">
          <mxGeometry width="190" height="40" as="geometry" />
        </mxCell>
        <mxCell id="1WeZYifnovVVl7Edg_Gf-184" value="Server2" style="shape=partialRectangle;html=1;whiteSpace=wrap;connectable=0;strokeColor=inherit;overflow=hidden;fillColor=none;top=0;left=0;bottom=0;right=0;pointerEvents=1;fontSize=12;rowspan=1;colspan=5;" parent="1WeZYifnovVVl7Edg_Gf-183" vertex="1">
          <mxGeometry width="190" height="40" as="geometry">
            <mxRectangle width="38" height="40" as="alternateBounds" />
          </mxGeometry>
        </mxCell>
        <mxCell id="1WeZYifnovVVl7Edg_Gf-185" value="" style="shape=partialRectangle;html=1;whiteSpace=wrap;connectable=0;strokeColor=inherit;overflow=hidden;fillColor=none;top=0;left=0;bottom=0;right=0;pointerEvents=1;fontSize=16;" parent="1WeZYifnovVVl7Edg_Gf-183" vertex="1" visible="0">
          <mxGeometry x="38" width="38" height="40" as="geometry">
            <mxRectangle width="38" height="40" as="alternateBounds" />
          </mxGeometry>
        </mxCell>
        <mxCell id="1WeZYifnovVVl7Edg_Gf-186" value="" style="shape=partialRectangle;html=1;whiteSpace=wrap;connectable=0;strokeColor=inherit;overflow=hidden;fillColor=none;top=0;left=0;bottom=0;right=0;pointerEvents=1;fontSize=16;" parent="1WeZYifnovVVl7Edg_Gf-183" vertex="1" visible="0">
          <mxGeometry x="76" width="38" height="40" as="geometry">
            <mxRectangle width="38" height="40" as="alternateBounds" />
          </mxGeometry>
        </mxCell>
        <mxCell id="1WeZYifnovVVl7Edg_Gf-187" style="shape=partialRectangle;html=1;whiteSpace=wrap;connectable=0;strokeColor=inherit;overflow=hidden;fillColor=none;top=0;left=0;bottom=0;right=0;pointerEvents=1;fontSize=16;" parent="1WeZYifnovVVl7Edg_Gf-183" vertex="1" visible="0">
          <mxGeometry x="114" width="38" height="40" as="geometry">
            <mxRectangle width="38" height="40" as="alternateBounds" />
          </mxGeometry>
        </mxCell>
        <mxCell id="1WeZYifnovVVl7Edg_Gf-188" style="shape=partialRectangle;html=1;whiteSpace=wrap;connectable=0;strokeColor=inherit;overflow=hidden;fillColor=none;top=0;left=0;bottom=0;right=0;pointerEvents=1;fontSize=16;" parent="1WeZYifnovVVl7Edg_Gf-183" vertex="1" visible="0">
          <mxGeometry x="152" width="38" height="40" as="geometry">
            <mxRectangle width="38" height="40" as="alternateBounds" />
          </mxGeometry>
        </mxCell>
        <mxCell id="1WeZYifnovVVl7Edg_Gf-189" value="" style="shape=tableRow;horizontal=0;startSize=0;swimlaneHead=0;swimlaneBody=0;strokeColor=inherit;top=0;left=0;bottom=0;right=0;collapsible=0;dropTarget=0;fillColor=none;points=[[0,0.5],[1,0.5]];portConstraint=eastwest;fontSize=16;" parent="1WeZYifnovVVl7Edg_Gf-182" vertex="1">
          <mxGeometry y="40" width="190" height="40" as="geometry" />
        </mxCell>
        <mxCell id="1WeZYifnovVVl7Edg_Gf-190" value="NIC4" style="shape=partialRectangle;html=1;whiteSpace=wrap;connectable=0;strokeColor=inherit;overflow=hidden;fillColor=none;top=0;left=0;bottom=0;right=0;pointerEvents=1;fontSize=12;" parent="1WeZYifnovVVl7Edg_Gf-189" vertex="1">
          <mxGeometry width="38" height="40" as="geometry">
            <mxRectangle width="38" height="40" as="alternateBounds" />
          </mxGeometry>
        </mxCell>
        <mxCell id="1WeZYifnovVVl7Edg_Gf-191" value="NIC3" style="shape=partialRectangle;html=1;whiteSpace=wrap;connectable=0;strokeColor=inherit;overflow=hidden;fillColor=none;top=0;left=0;bottom=0;right=0;pointerEvents=1;fontSize=12;" parent="1WeZYifnovVVl7Edg_Gf-189" vertex="1">
          <mxGeometry x="38" width="38" height="40" as="geometry">
            <mxRectangle width="38" height="40" as="alternateBounds" />
          </mxGeometry>
        </mxCell>
        <mxCell id="1WeZYifnovVVl7Edg_Gf-192" value="NIC2" style="shape=partialRectangle;html=1;whiteSpace=wrap;connectable=0;strokeColor=inherit;overflow=hidden;fillColor=none;top=0;left=0;bottom=0;right=0;pointerEvents=1;fontSize=12;" parent="1WeZYifnovVVl7Edg_Gf-189" vertex="1">
          <mxGeometry x="76" width="38" height="40" as="geometry">
            <mxRectangle width="38" height="40" as="alternateBounds" />
          </mxGeometry>
        </mxCell>
        <mxCell id="1WeZYifnovVVl7Edg_Gf-193" value="NIC1" style="shape=partialRectangle;html=1;whiteSpace=wrap;connectable=0;strokeColor=inherit;overflow=hidden;fillColor=none;top=0;left=0;bottom=0;right=0;pointerEvents=1;fontSize=12;" parent="1WeZYifnovVVl7Edg_Gf-189" vertex="1">
          <mxGeometry x="114" width="38" height="40" as="geometry">
            <mxRectangle width="38" height="40" as="alternateBounds" />
          </mxGeometry>
        </mxCell>
        <mxCell id="1WeZYifnovVVl7Edg_Gf-194" value="iDRAC" style="shape=partialRectangle;html=1;whiteSpace=wrap;connectable=0;strokeColor=inherit;overflow=hidden;fillColor=none;top=0;left=0;bottom=0;right=0;pointerEvents=1;fontSize=12;" parent="1WeZYifnovVVl7Edg_Gf-189" vertex="1">
          <mxGeometry x="152" width="38" height="40" as="geometry">
            <mxRectangle width="38" height="40" as="alternateBounds" />
          </mxGeometry>
        </mxCell>
        <mxCell id="1WeZYifnovVVl7Edg_Gf-195" value="Mgmt Pi" style="rounded=0;whiteSpace=wrap;html=1;" parent="1" vertex="1">
          <mxGeometry x="990" y="270" width="80" height="40" as="geometry" />
        </mxCell>
        <mxCell id="1WeZYifnovVVl7Edg_Gf-196" value="Vault Pi" style="rounded=0;whiteSpace=wrap;html=1;" parent="1" vertex="1">
          <mxGeometry x="1040" y="314" width="80" height="40" as="geometry" />
        </mxCell>
        <mxCell id="1WeZYifnovVVl7Edg_Gf-197" style="edgeStyle=orthogonalEdgeStyle;rounded=0;orthogonalLoop=1;jettySize=auto;html=1;exitX=0.5;exitY=1;exitDx=0;exitDy=0;entryX=0.022;entryY=-0.019;entryDx=0;entryDy=0;entryPerimeter=0;" parent="1" source="1WeZYifnovVVl7Edg_Gf-146" target="1WeZYifnovVVl7Edg_Gf-70" edge="1">
          <mxGeometry relative="1" as="geometry" />
        </mxCell>
        <mxCell id="1WeZYifnovVVl7Edg_Gf-211" value="Vix Tower" style="rounded=0;whiteSpace=wrap;html=1;" parent="1" vertex="1">
          <mxGeometry x="940" y="314" width="80" height="40" as="geometry" />
        </mxCell>
        <mxCell id="1WeZYifnovVVl7Edg_Gf-212" style="edgeStyle=orthogonalEdgeStyle;rounded=0;orthogonalLoop=1;jettySize=auto;html=1;exitX=0.5;exitY=1;exitDx=0;exitDy=0;entryX=0.065;entryY=0.003;entryDx=0;entryDy=0;entryPerimeter=0;" parent="1" source="1WeZYifnovVVl7Edg_Gf-211" target="1WeZYifnovVVl7Edg_Gf-70" edge="1">
          <mxGeometry relative="1" as="geometry" />
        </mxCell>
        <mxCell id="1WeZYifnovVVl7Edg_Gf-213" style="edgeStyle=orthogonalEdgeStyle;rounded=0;orthogonalLoop=1;jettySize=auto;html=1;exitX=0.5;exitY=1;exitDx=0;exitDy=0;" parent="1" source="1WeZYifnovVVl7Edg_Gf-195" edge="1">
          <mxGeometry relative="1" as="geometry">
            <mxPoint x="1040" y="420" as="targetPoint" />
          </mxGeometry>
        </mxCell>
        <mxCell id="1WeZYifnovVVl7Edg_Gf-214" style="edgeStyle=orthogonalEdgeStyle;rounded=0;orthogonalLoop=1;jettySize=auto;html=1;exitX=0.5;exitY=1;exitDx=0;exitDy=0;entryX=0.19;entryY=0;entryDx=0;entryDy=0;entryPerimeter=0;" parent="1" source="1WeZYifnovVVl7Edg_Gf-196" target="1WeZYifnovVVl7Edg_Gf-70" edge="1">
          <mxGeometry relative="1" as="geometry" />
        </mxCell>
        <mxCell id="1WeZYifnovVVl7Edg_Gf-245" style="edgeStyle=orthogonalEdgeStyle;rounded=0;orthogonalLoop=1;jettySize=auto;html=1;exitX=0.5;exitY=0;exitDx=0;exitDy=0;entryX=0.5;entryY=1;entryDx=0;entryDy=0;startArrow=classic;startFill=1;" parent="1" source="1WeZYifnovVVl7Edg_Gf-215" target="1WeZYifnovVVl7Edg_Gf-244" edge="1">
          <mxGeometry relative="1" as="geometry" />
        </mxCell>
        <mxCell id="1WeZYifnovVVl7Edg_Gf-215" value="VP2420" style="rounded=0;whiteSpace=wrap;html=1;" parent="1" vertex="1">
          <mxGeometry x="1090" y="260" width="80" height="40" as="geometry" />
        </mxCell>
        <mxCell id="1WeZYifnovVVl7Edg_Gf-216" style="edgeStyle=orthogonalEdgeStyle;rounded=0;orthogonalLoop=1;jettySize=auto;html=1;exitX=0.5;exitY=1;exitDx=0;exitDy=0;entryX=0.232;entryY=-0.019;entryDx=0;entryDy=0;entryPerimeter=0;" parent="1" source="1WeZYifnovVVl7Edg_Gf-215" target="1WeZYifnovVVl7Edg_Gf-70" edge="1">
          <mxGeometry relative="1" as="geometry" />
        </mxCell>
        <mxCell id="1WeZYifnovVVl7Edg_Gf-217" value="AC1900" style="rounded=0;whiteSpace=wrap;html=1;" parent="1" vertex="1">
          <mxGeometry x="1190" y="314" width="80" height="40" as="geometry" />
        </mxCell>
        <mxCell id="1WeZYifnovVVl7Edg_Gf-218" style="edgeStyle=orthogonalEdgeStyle;rounded=0;orthogonalLoop=1;jettySize=auto;html=1;exitX=0.25;exitY=1;exitDx=0;exitDy=0;entryX=0.355;entryY=0;entryDx=0;entryDy=0;entryPerimeter=0;" parent="1" source="1WeZYifnovVVl7Edg_Gf-217" target="1WeZYifnovVVl7Edg_Gf-70" edge="1">
          <mxGeometry relative="1" as="geometry">
            <mxPoint x="1150" y="420" as="targetPoint" />
            <Array as="points">
              <mxPoint x="1210" y="380" />
              <mxPoint x="1174" y="380" />
            </Array>
          </mxGeometry>
        </mxCell>
        <mxCell id="1WeZYifnovVVl7Edg_Gf-220" style="edgeStyle=orthogonalEdgeStyle;rounded=0;orthogonalLoop=1;jettySize=auto;html=1;exitX=0.704;exitY=1;exitDx=0;exitDy=0;entryX=0.937;entryY=0;entryDx=0;entryDy=0;entryPerimeter=0;exitPerimeter=0;" parent="1" source="1WeZYifnovVVl7Edg_Gf-189" target="1WeZYifnovVVl7Edg_Gf-70" edge="1">
          <mxGeometry relative="1" as="geometry">
            <mxPoint x="1681" y="380" as="sourcePoint" />
            <mxPoint x="1620" y="450" as="targetPoint" />
            <Array as="points">
              <mxPoint x="1574" y="380" />
              <mxPoint x="1540" y="380" />
            </Array>
          </mxGeometry>
        </mxCell>
        <mxCell id="1WeZYifnovVVl7Edg_Gf-223" style="edgeStyle=orthogonalEdgeStyle;rounded=0;orthogonalLoop=1;jettySize=auto;html=1;exitX=0.5;exitY=1;exitDx=0;exitDy=0;entryX=0.905;entryY=0;entryDx=0;entryDy=0;entryPerimeter=0;" parent="1" source="1WeZYifnovVVl7Edg_Gf-182" target="1WeZYifnovVVl7Edg_Gf-70" edge="1">
          <mxGeometry relative="1" as="geometry">
            <Array as="points">
              <mxPoint x="1535" y="370" />
              <mxPoint x="1520" y="370" />
            </Array>
          </mxGeometry>
        </mxCell>
        <mxCell id="1WeZYifnovVVl7Edg_Gf-224" style="edgeStyle=orthogonalEdgeStyle;rounded=0;orthogonalLoop=1;jettySize=auto;html=1;exitX=0.289;exitY=0.983;exitDx=0;exitDy=0;entryX=0.857;entryY=0;entryDx=0;entryDy=0;entryPerimeter=0;exitPerimeter=0;" parent="1" source="1WeZYifnovVVl7Edg_Gf-189" target="1WeZYifnovVVl7Edg_Gf-70" edge="1">
          <mxGeometry relative="1" as="geometry" />
        </mxCell>
        <mxCell id="1WeZYifnovVVl7Edg_Gf-225" style="edgeStyle=orthogonalEdgeStyle;rounded=0;orthogonalLoop=1;jettySize=auto;html=1;exitX=0.09;exitY=0.995;exitDx=0;exitDy=0;entryX=0.809;entryY=0;entryDx=0;entryDy=0;entryPerimeter=0;exitPerimeter=0;" parent="1" source="1WeZYifnovVVl7Edg_Gf-189" target="1WeZYifnovVVl7Edg_Gf-70" edge="1">
          <mxGeometry relative="1" as="geometry" />
        </mxCell>
        <mxCell id="1WeZYifnovVVl7Edg_Gf-227" style="edgeStyle=orthogonalEdgeStyle;rounded=0;orthogonalLoop=1;jettySize=auto;html=1;exitX=0.695;exitY=1.011;exitDx=0;exitDy=0;entryX=0.73;entryY=0;entryDx=0;entryDy=0;entryPerimeter=0;exitPerimeter=0;" parent="1" source="1WeZYifnovVVl7Edg_Gf-170" target="1WeZYifnovVVl7Edg_Gf-70" edge="1">
          <mxGeometry relative="1" as="geometry">
            <Array as="points">
              <mxPoint x="1602" y="260" />
              <mxPoint x="1410" y="260" />
            </Array>
          </mxGeometry>
        </mxCell>
        <mxCell id="1WeZYifnovVVl7Edg_Gf-228" style="edgeStyle=orthogonalEdgeStyle;rounded=0;orthogonalLoop=1;jettySize=auto;html=1;exitX=0.5;exitY=1;exitDx=0;exitDy=0;entryX=0.683;entryY=0;entryDx=0;entryDy=0;entryPerimeter=0;" parent="1" source="1WeZYifnovVVl7Edg_Gf-165" target="1WeZYifnovVVl7Edg_Gf-70" edge="1">
          <mxGeometry relative="1" as="geometry">
            <Array as="points">
              <mxPoint x="1565" y="250" />
              <mxPoint x="1380" y="250" />
            </Array>
          </mxGeometry>
        </mxCell>
        <mxCell id="1WeZYifnovVVl7Edg_Gf-229" style="edgeStyle=orthogonalEdgeStyle;rounded=0;orthogonalLoop=1;jettySize=auto;html=1;exitX=0.298;exitY=0.982;exitDx=0;exitDy=0;entryX=0.651;entryY=0;entryDx=0;entryDy=0;entryPerimeter=0;exitPerimeter=0;" parent="1" source="1WeZYifnovVVl7Edg_Gf-170" target="1WeZYifnovVVl7Edg_Gf-70" edge="1">
          <mxGeometry relative="1" as="geometry">
            <Array as="points">
              <mxPoint x="1527" y="240" />
              <mxPoint x="1360" y="240" />
            </Array>
          </mxGeometry>
        </mxCell>
        <mxCell id="1WeZYifnovVVl7Edg_Gf-230" style="edgeStyle=orthogonalEdgeStyle;rounded=0;orthogonalLoop=1;jettySize=auto;html=1;exitX=0.099;exitY=0.992;exitDx=0;exitDy=0;entryX=0.603;entryY=0;entryDx=0;entryDy=0;entryPerimeter=0;exitPerimeter=0;" parent="1" source="1WeZYifnovVVl7Edg_Gf-170" target="1WeZYifnovVVl7Edg_Gf-70" edge="1">
          <mxGeometry relative="1" as="geometry">
            <Array as="points">
              <mxPoint x="1489" y="230" />
              <mxPoint x="1330" y="230" />
            </Array>
          </mxGeometry>
        </mxCell>
        <mxCell id="1WeZYifnovVVl7Edg_Gf-231" value="User Access" style="text;html=1;align=center;verticalAlign=middle;whiteSpace=wrap;rounded=0;rotation=-45;" parent="1" vertex="1">
          <mxGeometry x="930" y="641" width="60" height="30" as="geometry" />
        </mxCell>
        <mxCell id="1WeZYifnovVVl7Edg_Gf-232" value="OOB MGT" style="text;html=1;align=center;verticalAlign=middle;whiteSpace=wrap;rounded=0;rotation=-45;" parent="1" vertex="1">
          <mxGeometry x="1449.9998051533946" y="643.9998051533946" width="60" height="30" as="geometry" />
        </mxCell>
        <mxCell id="1WeZYifnovVVl7Edg_Gf-233" value="&lt;div&gt;Unprotected&lt;/div&gt;" style="text;html=1;align=center;verticalAlign=middle;whiteSpace=wrap;rounded=0;rotation=-45;" parent="1" vertex="1">
          <mxGeometry x="1049.9998051533946" y="640.9998051533946" width="60" height="30" as="geometry" />
        </mxCell>
        <mxCell id="1WeZYifnovVVl7Edg_Gf-234" value="" style="endArrow=none;dashed=1;html=1;dashPattern=1 3;strokeWidth=2;rounded=0;" parent="1" edge="1">
          <mxGeometry width="50" height="50" relative="1" as="geometry">
            <mxPoint x="1029" y="669" as="sourcePoint" />
            <mxPoint x="1029" y="517" as="targetPoint" />
          </mxGeometry>
        </mxCell>
        <mxCell id="1WeZYifnovVVl7Edg_Gf-235" value="" style="endArrow=none;dashed=1;html=1;dashPattern=1 3;strokeWidth=2;rounded=0;" parent="1" edge="1">
          <mxGeometry width="50" height="50" relative="1" as="geometry">
            <mxPoint x="1134" y="669" as="sourcePoint" />
            <mxPoint x="1134" y="517" as="targetPoint" />
          </mxGeometry>
        </mxCell>
        <mxCell id="1WeZYifnovVVl7Edg_Gf-236" value="" style="endArrow=none;dashed=1;html=1;dashPattern=1 3;strokeWidth=2;rounded=0;" parent="1" edge="1">
          <mxGeometry width="50" height="50" relative="1" as="geometry">
            <mxPoint x="1450" y="672" as="sourcePoint" />
            <mxPoint x="1450" y="520" as="targetPoint" />
          </mxGeometry>
        </mxCell>
        <mxCell id="1WeZYifnovVVl7Edg_Gf-237" value="&lt;div&gt;Internal&lt;/div&gt;" style="text;html=1;align=center;verticalAlign=middle;whiteSpace=wrap;rounded=0;rotation=-45;" parent="1" vertex="1">
          <mxGeometry x="1259.9998051533946" y="640.9998051533946" width="60" height="30" as="geometry" />
        </mxCell>
        <mxCell id="1WeZYifnovVVl7Edg_Gf-239" style="edgeStyle=orthogonalEdgeStyle;rounded=0;orthogonalLoop=1;jettySize=auto;html=1;exitX=0.063;exitY=1.008;exitDx=0;exitDy=0;entryX=0.063;entryY=-0.002;entryDx=0;entryDy=0;entryPerimeter=0;exitPerimeter=0;" parent="1" source="1WeZYifnovVVl7Edg_Gf-70" target="1WeZYifnovVVl7Edg_Gf-96" edge="1">
          <mxGeometry relative="1" as="geometry" />
        </mxCell>
        <mxCell id="1WeZYifnovVVl7Edg_Gf-242" style="edgeStyle=orthogonalEdgeStyle;rounded=0;orthogonalLoop=1;jettySize=auto;html=1;exitX=0.191;exitY=0.99;exitDx=0;exitDy=0;entryX=0.355;entryY=-0.004;entryDx=0;entryDy=0;entryPerimeter=0;exitPerimeter=0;" parent="1" source="1WeZYifnovVVl7Edg_Gf-70" target="1WeZYifnovVVl7Edg_Gf-95" edge="1">
          <mxGeometry relative="1" as="geometry">
            <Array as="points">
              <mxPoint x="1070" y="500" />
              <mxPoint x="1174" y="500" />
            </Array>
          </mxGeometry>
        </mxCell>
        <mxCell id="1WeZYifnovVVl7Edg_Gf-244" value="External" style="rounded=0;whiteSpace=wrap;html=1;" parent="1" vertex="1">
          <mxGeometry x="1090" y="160" width="80" height="40" as="geometry" />
        </mxCell>
        <mxCell id="1WeZYifnovVVl7Edg_Gf-247" style="edgeStyle=orthogonalEdgeStyle;rounded=0;orthogonalLoop=1;jettySize=auto;html=1;entryX=0.438;entryY=0.005;entryDx=0;entryDy=0;entryPerimeter=0;exitX=0.318;exitY=0.999;exitDx=0;exitDy=0;exitPerimeter=0;" parent="1" source="1WeZYifnovVVl7Edg_Gf-70" target="1WeZYifnovVVl7Edg_Gf-95" edge="1">
          <mxGeometry relative="1" as="geometry">
            <Array as="points">
              <mxPoint x="1150" y="451" />
              <mxPoint x="1150" y="451" />
              <mxPoint x="1150" y="490" />
              <mxPoint x="1226" y="490" />
            </Array>
            <mxPoint x="1160" y="470" as="sourcePoint" />
          </mxGeometry>
        </mxCell>
        <mxCell id="1WeZYifnovVVl7Edg_Gf-248" style="edgeStyle=orthogonalEdgeStyle;rounded=0;orthogonalLoop=1;jettySize=auto;html=1;exitX=0.231;exitY=0.99;exitDx=0;exitDy=0;entryX=0.143;entryY=0.073;entryDx=0;entryDy=0;entryPerimeter=0;exitPerimeter=0;" parent="1" source="1WeZYifnovVVl7Edg_Gf-70" target="1WeZYifnovVVl7Edg_Gf-96" edge="1">
          <mxGeometry relative="1" as="geometry">
            <Array as="points">
              <mxPoint x="1096" y="520" />
              <mxPoint x="1040" y="520" />
            </Array>
          </mxGeometry>
        </mxCell>
        <mxCell id="1WeZYifnovVVl7Edg_Gf-250" style="edgeStyle=orthogonalEdgeStyle;rounded=0;orthogonalLoop=1;jettySize=auto;html=1;exitX=0.73;exitY=1.005;exitDx=0;exitDy=0;entryX=0.935;entryY=-0.017;entryDx=0;entryDy=0;entryPerimeter=0;exitPerimeter=0;" parent="1" source="1WeZYifnovVVl7Edg_Gf-70" target="1WeZYifnovVVl7Edg_Gf-95" edge="1">
          <mxGeometry relative="1" as="geometry">
            <Array as="points">
              <mxPoint x="1410" y="490" />
              <mxPoint x="1539" y="490" />
            </Array>
          </mxGeometry>
        </mxCell>
        <mxCell id="1WeZYifnovVVl7Edg_Gf-252" style="edgeStyle=orthogonalEdgeStyle;rounded=0;orthogonalLoop=1;jettySize=auto;html=1;exitX=0.898;exitY=1.019;exitDx=0;exitDy=0;entryX=0.894;entryY=0.002;entryDx=0;entryDy=0;entryPerimeter=0;exitPerimeter=0;" parent="1" source="1WeZYifnovVVl7Edg_Gf-70" target="1WeZYifnovVVl7Edg_Gf-95" edge="1">
          <mxGeometry relative="1" as="geometry">
            <Array as="points">
              <mxPoint x="1516" y="480" />
              <mxPoint x="1516" y="480" />
              <mxPoint x="1516" y="500" />
              <mxPoint x="1513" y="500" />
              <mxPoint x="1513" y="533" />
            </Array>
          </mxGeometry>
        </mxCell>
        <mxCell id="1WeZYifnovVVl7Edg_Gf-253" style="edgeStyle=orthogonalEdgeStyle;rounded=0;orthogonalLoop=1;jettySize=auto;html=1;exitX=0.857;exitY=1;exitDx=0;exitDy=0;entryX=0.763;entryY=-0.015;entryDx=0;entryDy=0;entryPerimeter=0;exitPerimeter=0;" parent="1" source="1WeZYifnovVVl7Edg_Gf-70" target="1WeZYifnovVVl7Edg_Gf-95" edge="1">
          <mxGeometry relative="1" as="geometry">
            <Array as="points">
              <mxPoint x="1490" y="470" />
              <mxPoint x="1431" y="470" />
            </Array>
          </mxGeometry>
        </mxCell>
        <mxCell id="1WeZYifnovVVl7Edg_Gf-254" style="edgeStyle=orthogonalEdgeStyle;rounded=0;orthogonalLoop=1;jettySize=auto;html=1;entryX=0.731;entryY=-0.015;entryDx=0;entryDy=0;entryPerimeter=0;exitX=0.81;exitY=0.996;exitDx=0;exitDy=0;exitPerimeter=0;" parent="1" source="1WeZYifnovVVl7Edg_Gf-70" target="1WeZYifnovVVl7Edg_Gf-96" edge="1">
          <mxGeometry relative="1" as="geometry">
            <Array as="points">
              <mxPoint x="1460" y="460" />
              <mxPoint x="1420" y="460" />
              <mxPoint x="1420" y="510" />
              <mxPoint x="1410" y="510" />
            </Array>
            <mxPoint x="1460" y="450" as="sourcePoint" />
            <mxPoint x="1420.0400000000002" y="533.3" as="targetPoint" />
          </mxGeometry>
        </mxCell>
        <mxCell id="1WeZYifnovVVl7Edg_Gf-256" style="edgeStyle=orthogonalEdgeStyle;rounded=0;orthogonalLoop=1;jettySize=auto;html=1;exitX=0.686;exitY=1.015;exitDx=0;exitDy=0;entryX=0.853;entryY=-0.007;entryDx=0;entryDy=0;entryPerimeter=0;exitPerimeter=0;" parent="1" source="1WeZYifnovVVl7Edg_Gf-70" target="1WeZYifnovVVl7Edg_Gf-96" edge="1">
          <mxGeometry relative="1" as="geometry">
            <Array as="points">
              <mxPoint x="1382" y="500" />
              <mxPoint x="1487" y="500" />
            </Array>
          </mxGeometry>
        </mxCell>
        <mxCell id="1WeZYifnovVVl7Edg_Gf-257" style="edgeStyle=orthogonalEdgeStyle;rounded=0;orthogonalLoop=1;jettySize=auto;html=1;exitX=0.647;exitY=1.008;exitDx=0;exitDy=0;entryX=0.606;entryY=0.011;entryDx=0;entryDy=0;entryPerimeter=0;exitPerimeter=0;" parent="1" source="1WeZYifnovVVl7Edg_Gf-70" target="1WeZYifnovVVl7Edg_Gf-95" edge="1">
          <mxGeometry relative="1" as="geometry" />
        </mxCell>
        <mxCell id="1WeZYifnovVVl7Edg_Gf-258" style="edgeStyle=orthogonalEdgeStyle;rounded=0;orthogonalLoop=1;jettySize=auto;html=1;exitX=0.605;exitY=1;exitDx=0;exitDy=0;entryX=0.564;entryY=-0.012;entryDx=0;entryDy=0;entryPerimeter=0;exitPerimeter=0;" parent="1" source="1WeZYifnovVVl7Edg_Gf-70" target="1WeZYifnovVVl7Edg_Gf-95" edge="1">
          <mxGeometry relative="1" as="geometry">
            <Array as="points">
              <mxPoint x="1331" y="480" />
              <mxPoint x="1305" y="480" />
            </Array>
          </mxGeometry>
        </mxCell>
        <mxCell id="9_G8QNj0EjINmIg4zatd-1" style="edgeStyle=orthogonalEdgeStyle;rounded=0;orthogonalLoop=1;jettySize=auto;html=1;exitX=0.349;exitY=0.996;exitDx=0;exitDy=0;exitPerimeter=0;entryX=0.105;entryY=0.052;entryDx=0;entryDy=0;entryPerimeter=0;" parent="1" source="1WeZYifnovVVl7Edg_Gf-70" target="1WeZYifnovVVl7Edg_Gf-96" edge="1">
          <mxGeometry relative="1" as="geometry">
            <Array as="points">
              <mxPoint x="1170" y="480" />
              <mxPoint x="1016" y="480" />
            </Array>
            <mxPoint x="1150" y="450" as="sourcePoint" />
            <mxPoint x="1285" y="553" as="targetPoint" />
          </mxGeometry>
        </mxCell>
        <mxCell id="9_G8QNj0EjINmIg4zatd-2" style="edgeStyle=orthogonalEdgeStyle;rounded=0;orthogonalLoop=1;jettySize=auto;html=1;exitX=0.75;exitY=1;exitDx=0;exitDy=0;" parent="1" source="1WeZYifnovVVl7Edg_Gf-215" edge="1">
          <mxGeometry relative="1" as="geometry">
            <mxPoint x="1150" y="310" as="sourcePoint" />
            <mxPoint x="1120" y="420" as="targetPoint" />
            <Array as="points">
              <mxPoint x="1150" y="365" />
              <mxPoint x="1120" y="365" />
            </Array>
          </mxGeometry>
        </mxCell>
        <mxCell id="y8U4JyHo8gR0J9ADLJj5-1" value="* iDRAC functionality provided by NIC1 pending dedicated iDRAC licenses" style="text;html=1;align=center;verticalAlign=middle;whiteSpace=wrap;rounded=0;" parent="1" vertex="1">
          <mxGeometry x="1440" y="700" width="250" height="60" as="geometry" />
        </mxCell>
        <mxCell id="NUuXP2O3mSexVDJCBuf6-1" value="" style="image;points=[];aspect=fixed;html=1;align=center;shadow=0;dashed=0;image=img/lib/allied_telesis/computer_and_terminals/Server_Desktop.svg;" parent="1" vertex="1">
          <mxGeometry x="580" y="870" width="42.599999999999994" height="54" as="geometry" />
        </mxCell>
        <mxCell id="NUuXP2O3mSexVDJCBuf6-2" value="Bootstrap Node" style="text;html=1;align=center;verticalAlign=middle;whiteSpace=wrap;rounded=0;" parent="1" vertex="1">
          <mxGeometry x="622.6" y="882" width="60" height="30" as="geometry" />
        </mxCell>
        <mxCell id="NUuXP2O3mSexVDJCBuf6-5" value="" style="group" parent="1" vertex="1" connectable="0">
          <mxGeometry x="580" y="780" width="59.25" height="74.5" as="geometry" />
        </mxCell>
        <mxCell id="NUuXP2O3mSexVDJCBuf6-4" value="" style="outlineConnect=0;dashed=0;verticalLabelPosition=bottom;verticalAlign=top;align=center;html=1;shape=mxgraph.aws3.traditional_server;fillColor=#7D7C7C;gradientColor=none;" parent="NUuXP2O3mSexVDJCBuf6-5" vertex="1">
          <mxGeometry x="12.75" y="11.5" width="46.5" height="63" as="geometry" />
        </mxCell>
        <mxCell id="NUuXP2O3mSexVDJCBuf6-3" value="" style="outlineConnect=0;dashed=0;verticalLabelPosition=bottom;verticalAlign=top;align=center;html=1;shape=mxgraph.aws3.traditional_server;fillColor=#7D7C7C;gradientColor=none;" parent="NUuXP2O3mSexVDJCBuf6-5" vertex="1">
          <mxGeometry width="46.5" height="63" as="geometry" />
        </mxCell>
        <mxCell id="NUuXP2O3mSexVDJCBuf6-6" value="" style="endArrow=classic;startArrow=classic;html=1;rounded=0;exitX=1;exitY=0.5;exitDx=0;exitDy=0;exitPerimeter=0;entryX=-0.076;entryY=0.586;entryDx=0;entryDy=0;entryPerimeter=0;" parent="1" source="KC1Aw0KQFRhmaeJQ0zwd-1" target="NUuXP2O3mSexVDJCBuf6-1" edge="1">
          <mxGeometry width="50" height="50" relative="1" as="geometry">
            <mxPoint x="510" y="840" as="sourcePoint" />
            <mxPoint x="640" y="820" as="targetPoint" />
          </mxGeometry>
        </mxCell>
        <mxCell id="NUuXP2O3mSexVDJCBuf6-20" value="Bootstrap Server" style="rounded=0;whiteSpace=wrap;html=1;" parent="1" vertex="1">
          <mxGeometry x="1240" y="163" width="80" height="40" as="geometry" />
        </mxCell>
        <mxCell id="NUuXP2O3mSexVDJCBuf6-21" style="edgeStyle=orthogonalEdgeStyle;rounded=0;orthogonalLoop=1;jettySize=auto;html=1;exitX=0.5;exitY=1;exitDx=0;exitDy=0;entryX=0.603;entryY=0;entryDx=0;entryDy=0;entryPerimeter=0;" parent="1" source="NUuXP2O3mSexVDJCBuf6-20" edge="1">
          <mxGeometry relative="1" as="geometry">
            <Array as="points">
              <mxPoint x="1280" y="230" />
              <mxPoint x="1300" y="230" />
            </Array>
            <mxPoint x="1459" y="220" as="sourcePoint" />
            <mxPoint x="1300" y="420" as="targetPoint" />
          </mxGeometry>
        </mxCell>
        <mxCell id="NUuXP2O3mSexVDJCBuf6-22" style="edgeStyle=orthogonalEdgeStyle;rounded=0;orthogonalLoop=1;jettySize=auto;html=1;exitX=0.561;exitY=0.987;exitDx=0;exitDy=0;entryX=0.519;entryY=0.001;entryDx=0;entryDy=0;entryPerimeter=0;exitPerimeter=0;" parent="1" source="1WeZYifnovVVl7Edg_Gf-70" target="1WeZYifnovVVl7Edg_Gf-96" edge="1">
          <mxGeometry relative="1" as="geometry">
            <Array as="points">
              <mxPoint x="1303" y="470" />
              <mxPoint x="1277" y="470" />
              <mxPoint x="1277" y="533" />
            </Array>
            <mxPoint x="1303" y="450" as="sourcePoint" />
            <mxPoint x="1277" y="532" as="targetPoint" />
          </mxGeometry>
        </mxCell>
        <mxCell id="NUuXP2O3mSexVDJCBuf6-23" style="edgeStyle=orthogonalEdgeStyle;rounded=0;orthogonalLoop=1;jettySize=auto;html=1;exitX=0.75;exitY=1;exitDx=0;exitDy=0;entryX=0.394;entryY=0.009;entryDx=0;entryDy=0;entryPerimeter=0;" parent="1" source="1WeZYifnovVVl7Edg_Gf-217" target="1WeZYifnovVVl7Edg_Gf-70" edge="1">
          <mxGeometry relative="1" as="geometry">
            <mxPoint x="1270" y="380" as="sourcePoint" />
            <mxPoint x="1199" y="420" as="targetPoint" />
            <Array as="points">
              <mxPoint x="1250" y="390" />
              <mxPoint x="1198" y="390" />
            </Array>
          </mxGeometry>
        </mxCell>
        <mxCell id="NUuXP2O3mSexVDJCBuf6-24" style="edgeStyle=orthogonalEdgeStyle;rounded=0;orthogonalLoop=1;jettySize=auto;html=1;entryX=0.812;entryY=-0.03;entryDx=0;entryDy=0;entryPerimeter=0;exitX=0.394;exitY=0.996;exitDx=0;exitDy=0;exitPerimeter=0;" parent="1" source="1WeZYifnovVVl7Edg_Gf-70" target="1WeZYifnovVVl7Edg_Gf-96" edge="1">
          <mxGeometry relative="1" as="geometry">
            <mxPoint x="1170" y="450" as="sourcePoint" />
            <mxPoint x="1200" y="455" as="targetPoint" />
            <Array as="points">
              <mxPoint x="1200" y="450" />
              <mxPoint x="1200" y="520" />
              <mxPoint x="1462" y="520" />
            </Array>
          </mxGeometry>
        </mxCell>
        <mxCell id="mr__7E6E5zUkvxwd_UZX-1" style="edgeStyle=orthogonalEdgeStyle;rounded=0;orthogonalLoop=1;jettySize=auto;html=1;exitX=0.878;exitY=1.013;exitDx=0;exitDy=0;exitPerimeter=0;" parent="1" source="1WeZYifnovVVl7Edg_Gf-215" edge="1">
          <mxGeometry relative="1" as="geometry">
            <mxPoint x="1160" y="300" as="sourcePoint" />
            <mxPoint x="1150" y="420" as="targetPoint" />
            <Array as="points">
              <mxPoint x="1160" y="380" />
              <mxPoint x="1150" y="380" />
            </Array>
          </mxGeometry>
        </mxCell>
        <mxCell id="mr__7E6E5zUkvxwd_UZX-2" value="" style="edgeStyle=orthogonalEdgeStyle;rounded=0;orthogonalLoop=1;jettySize=auto;html=1;exitX=0.271;exitY=0.993;exitDx=0;exitDy=0;entryX=0.854;entryY=0.983;entryDx=0;entryDy=0;entryPerimeter=0;exitPerimeter=0;" parent="1" source="1WeZYifnovVVl7Edg_Gf-70" target="1WeZYifnovVVl7Edg_Gf-95" edge="1">
          <mxGeometry relative="1" as="geometry">
            <mxPoint x="1572" y="601" as="targetPoint" />
            <Array as="points">
              <mxPoint x="1121" y="470" />
              <mxPoint x="940" y="470" />
              <mxPoint x="940" y="610" />
              <mxPoint x="1488" y="610" />
            </Array>
            <mxPoint x="1153" y="460" as="sourcePoint" />
          </mxGeometry>
        </mxCell>
      </root>
    </mxGraphModel>
  </diagram>
</mxfile>
